<svg xmlns="http://www.w3.org/2000/svg" viewBox="0 0 134.41 51.13"><defs><style>.cls-1{isolation:isolate;}.cls-2{fill:#bdd2ed;}.cls-3{fill:#acacc5;}.cls-3,.cls-4,.cls-5{mix-blend-mode:multiply;}.cls-4{fill:#c4dae5;}.cls-5{fill:#d5dae7;}.cls-6{fill:#b6c4d5;}.cls-7{fill:#a78a78;}.cls-8{fill:#e1ccb0;}.cls-9{fill:#bcada6;}.cls-10{fill:#bad0e0;}.cls-11{fill:#abbfce;}.cls-12{fill:#9cafbd;}.cls-13{fill:#dfc2af;}.cls-14{fill:#ff5733;}</style></defs><title>Asset 1</title><g class="cls-1"><g id="Layer_2" data-name="Layer 2"><g id="Layer_1-2" data-name="Layer 1"><path class="cls-2" d="M.07,36,0,50.46l134.34.65.07-14.46A36.17,36.17,0,0,0,98.41.3l-62-.3A36.17,36.17,0,0,0,.07,36ZM73.21,33.8l7.08,0v2.36l-7.08,0Zm11.36.05,7.09,0v2.36l-7.09,0Zm34.17.17,7.09,0v2.36l-7.09,0ZM107.38,34l7.08,0v2.36l-7.08,0ZM96,36.27V33.91l7.09,0V36.3Z"/><path class="cls-3" d="M64.17,48.85v1.89h2.21l3.43,0h.79l9.73,0h.78l4.2,0h.78l4.2,0h.79l6.84,0h.25l34,.2v0l.08-13.81c.11-19.12-15-34.71-33.79-34.81a33.57,33.57,0,0,0-24.08,10,34.36,34.36,0,0,0-7.09,10.38c-.1.22-.2.44-.29.66a35.76,35.76,0,0,0-1.35,3.85c-.07.26-.15.51-.21.78s-.11.41-.16.62l-.15.64c0,.22-.09.44-.14.66a.43.43,0,0,0,0,.11,2.38,2.38,0,0,0,0,.26c0,.11-.05.24-.07.36s-.06.32-.08.47,0,.29-.07.44A32.44,32.44,0,0,0,64.3,35c0,.24,0,.48,0,.72,0,.39,0,.78,0,1.18l0,3v.73l0,5.84ZM118.74,34l7.09,0v2.36l-7.09,0ZM107.38,34l7.08,0v2.36l-7.08,0ZM96,33.91l7.09,0V36.3l-7.09,0Zm-11.44-.06,7.09,0v2.36l-7.09,0ZM73.21,33.8l7.08,0v2.36l-7.08,0Z"/><path class="cls-4" d="M64.17,48.85v1.89h2.21L66.44,37a35.08,35.08,0,0,0-1-8.81c-.06.21-.11.41-.16.62l-.15.64c0,.22-.09.44-.14.66a.43.43,0,0,0,0,.11,2.38,2.38,0,0,0,0,.26c0,.11-.05.24-.07.36s-.06.32-.08.47,0,.29-.07.44A32.44,32.44,0,0,0,64.3,35c0,.24,0,.48,0,.72,0,.39,0,.78,0,1.18l0,3v.73l0,5.84Z"/><path class="cls-5" d="M14.06,7.61l62,.3a37,37,0,0,0-3.27,2.86A36.16,36.16,0,0,0,62.06,36.3L62,50.76l-62-.3L.07,36A36.09,36.09,0,0,1,10.79,10.47,37,37,0,0,1,14.06,7.61Z"/><path class="cls-4" d="M50.1,33.69l7.09,0v2.36l-7.09,0ZM38.73,36l7.08,0V33.67l-7.08,0Zm-11.37-.05,7.09,0V33.61l-7.09,0Zm-11.44-.06,7.09,0V33.56l-7.08,0ZM4.56,35.83l7.08,0V33.5l-7.08,0Z"/><path class="cls-6" d="M125.67,29.07v1.67l-4.21,4.17,0-5.86h-.79v1.63l-4.21,4.17,0-5.82h-.79l-.1,22h.79l0-4.76,4.17,4.21V51h.79l0-4.81,4.18,4.21v.62h.79l.11-22Zm0,2.36,0,8.42-4.18-4.21v0Zm-5,9.14-4.21,4.18,0-8.4,4.17,4.21Zm.81-4.24,4.18,4.21v.11l-4.21,4.17Zm-.76-5-.05,8.52-4.17-4.22v-.13Zm-4.27,14.21v-.13l4.21-4.18,0,8.52Zm5,0v0l4.21-4.18,0,8.43Z"/><rect class="cls-7" x="110.25" y="30.08" width="0.73" height="30.74" transform="translate(64.64 155.85) rotate(-89.73)"/><rect class="cls-7" x="110.28" y="25.15" width="0.73" height="30.74" transform="translate(69.59 150.97) rotate(-89.73)"/><rect class="cls-7" x="110.23" y="35.01" width="0.73" height="30.74" transform="translate(59.69 160.73) rotate(-89.73)"/><rect class="cls-7" x="110.3" y="20.23" width="0.73" height="30.74" transform="translate(74.54 146.09) rotate(-89.73)"/><rect class="cls-7" x="110.32" y="15.3" width="0.73" height="30.74" transform="translate(79.49 141.21) rotate(-89.73)"/><rect class="cls-8" x="105.34" y="26.89" width="3.1" height="3.69" transform="translate(77.65 135.49) rotate(-89.73)"/><rect class="cls-9" x="102.67" y="27.89" width="3.1" height="1.66" transform="translate(74.99 132.8) rotate(-89.73)"/><rect class="cls-8" x="116.28" y="26.94" width="3.1" height="3.69" transform="translate(88.48 146.48) rotate(-89.73)"/><rect class="cls-8" x="120.28" y="27.39" width="2.7" height="3.22" transform="translate(92.05 150.5) rotate(-89.73)"/><rect class="cls-8" x="105.89" y="32.25" width="2.71" height="3.22" transform="translate(72.87 140.94) rotate(-89.73)"/><rect class="cls-8" x="97.41" y="27.28" width="2.7" height="3.22" transform="translate(69.39 127.51) rotate(-89.73)"/><rect class="cls-8" x="97.67" y="31.58" width="3.29" height="3.91" transform="translate(65.31 132.69) rotate(-89.73)"/><rect class="cls-8" x="101.26" y="32.47" width="2.48" height="2.96" transform="translate(68.06 136.29) rotate(-89.73)"/><rect class="cls-8" x="108.84" y="26.48" width="3.49" height="4.16" transform="translate(81.5 139) rotate(-89.73)"/><rect class="cls-8" x="112.68" y="27.49" width="2.58" height="3.08" transform="translate(84.39 142.85) rotate(-89.73)"/><rect class="cls-8" x="109.04" y="31.9" width="3.04" height="3.62" transform="translate(76.32 144.11) rotate(-89.73)"/><rect class="cls-8" x="106.55" y="47.77" width="2.04" height="2.42" transform="translate(58.07 156.31) rotate(-89.73)"/><rect class="cls-8" x="120.59" y="46.38" width="2.04" height="5.34" transform="translate(71.98 170.42) rotate(-89.73)"/><rect class="cls-8" x="113.45" y="47" width="2.77" height="3.29" transform="translate(65.63 163.25) rotate(-89.73)"/><rect class="cls-8" x="116.33" y="46.45" width="3.29" height="3.92" transform="translate(69 166.14) rotate(-89.73)"/><rect class="cls-8" x="97.6" y="46.36" width="3.29" height="3.91" transform="translate(50.46 147.33) rotate(-89.73)"/><rect class="cls-8" x="101.19" y="47.25" width="2.48" height="2.96" transform="translate(53.21 150.92) rotate(-89.73)"/><rect class="cls-8" x="108.97" y="46.68" width="3.04" height="3.62" transform="translate(61.47 158.75) rotate(-89.73)"/><rect class="cls-8" x="113.47" y="32.42" width="2.58" height="3.08" transform="translate(80.25 148.56) rotate(-89.73)"/><rect class="cls-8" x="105.84" y="42.11" width="2.71" height="3.22" transform="translate(62.97 150.7) rotate(-89.73)"/><rect class="cls-8" x="109.57" y="42.33" width="1.89" height="3.62" transform="translate(65.84 154.44) rotate(-89.73)"/><rect class="cls-8" x="113.11" y="41.59" width="3.21" height="3.82" transform="translate(70.67 158.01) rotate(-89.73)"/><rect class="cls-8" x="116.73" y="42.54" width="2.35" height="2.8" transform="translate(73.4 161.64) rotate(-89.73)"/><rect class="cls-8" x="119.56" y="42.93" width="1.6" height="2.8" transform="translate(75.45 164.48) rotate(-89.73)"/><rect class="cls-8" x="103.35" y="42.29" width="2.01" height="3.51" transform="translate(59.8 148.19) rotate(-89.73)"/><rect class="cls-8" x="98.28" y="41.76" width="2.38" height="4.17" transform="translate(55.16 143.1) rotate(-89.73)"/><rect class="cls-8" x="121.6" y="41.41" width="3.41" height="4.06" transform="translate(79.27 166.53) rotate(-89.73)"/><rect class="cls-8" x="103.75" y="37.17" width="2.71" height="3.22" transform="translate(65.82 143.69) rotate(-89.73)"/><rect class="cls-8" x="99.53" y="37.03" width="2.04" height="4.12" transform="translate(60.99 139.45) rotate(-89.73)"/><rect class="cls-8" x="106.94" y="36.43" width="3.39" height="4.04" transform="translate(69.66 146.9) rotate(-89.73)"/><rect class="cls-8" x="111.38" y="36.81" width="3.07" height="3.65" transform="translate(73.74 151.36) rotate(-89.73)"/><rect class="cls-8" x="114.93" y="37.33" width="2.04" height="3.65" transform="translate(76.24 154.93) rotate(-89.73)"/><rect class="cls-8" x="117.76" y="37.69" width="1.35" height="3.65" transform="translate(78.35 157.77) rotate(-89.73)"/><rect class="cls-8" x="120.23" y="35.8" width="3.39" height="5.44" transform="translate(82.83 160.26) rotate(-89.73)"/><rect class="cls-8" x="118.71" y="32.45" width="2.58" height="3.08" transform="translate(85.44 153.82) rotate(-89.73)"/><rect class="cls-8" x="119.6" y="30.88" width="1.88" height="6.92" transform="translate(85.63 154.72) rotate(-89.73)"/><rect class="cls-9" x="107.76" y="26.44" width="0.39" height="1.1" transform="translate(80.45 134.82) rotate(-89.73)"/><rect class="cls-9" x="99.53" y="28.39" width="2.7" height="1.03" transform="translate(71.5 129.65) rotate(-89.73)"/><rect class="cls-9" x="114.2" y="28.54" width="3.1" height="0.48" transform="translate(86.41 144.39) rotate(-89.73)"/><rect class="cls-9" x="118.5" y="28.82" width="2.7" height="0.35" transform="translate(90.28 148.71) rotate(-89.73)"/><rect class="cls-9" x="114.92" y="26.66" width="0.52" height="1.64" transform="translate(87.14 142.52) rotate(-89.73)"/><rect class="cls-9" x="117.64" y="32.56" width="0.7" height="0.95" transform="translate(84.4 150.87) rotate(-89.73)"/><rect class="cls-9" x="115.75" y="33.93" width="1.88" height="0.78" transform="translate(81.81 150.84) rotate(-89.73)"/><rect class="cls-9" x="111.51" y="33.52" width="2.58" height="0.85" transform="translate(78.31 146.58) rotate(-89.73)"/><rect class="cls-9" x="108.03" y="31.79" width="0.34" height="1.1" transform="translate(75.34 140.39) rotate(-89.73)"/><rect class="cls-9" x="103.77" y="33.34" width="2.71" height="1.03" transform="translate(70.76 138.81) rotate(-89.73)"/><rect class="cls-9" x="101.27" y="31.91" width="0.8" height="0.78" transform="translate(68.88 133.82) rotate(-89.73)"/><rect class="cls-9" x="102.93" y="33.76" width="2.48" height="0.39" transform="translate(69.71 137.97) rotate(-89.73)"/><rect class="cls-9" x="97.12" y="38.72" width="2.04" height="0.7" transform="translate(58.6 137.03) rotate(-89.73)"/><rect class="cls-9" x="101.81" y="38.44" width="2.71" height="0.66" transform="translate(63.9 141.75) rotate(-89.73)"/><rect class="cls-9" x="105.77" y="36.59" width="0.69" height="1" transform="translate(68.52 143.03) rotate(-89.73)"/><rect class="cls-9" x="109.34" y="38.41" width="3.07" height="0.44" transform="translate(71.71 149.31) rotate(-89.73)"/><rect class="cls-9" x="117.74" y="37.37" width="2.04" height="0.91" transform="translate(80.37 156.4) rotate(-89.73)"/><rect class="cls-9" x="119.95" y="42.21" width="1.81" height="0.84" transform="translate(77.65 163.28) rotate(-89.73)"/><rect class="cls-9" x="110.96" y="43.25" width="3.21" height="0.48" transform="translate(68.54 155.85) rotate(-89.73)"/><rect class="cls-9" x="111.48" y="42.11" width="1.32" height="0.87" transform="translate(69.06 154.48) rotate(-89.73)"/><rect class="cls-9" x="108.74" y="42.44" width="0.82" height="0.68" transform="translate(65.84 151.72) rotate(-89.73)"/><rect class="cls-9" x="100.67" y="43.54" width="2.38" height="0.62" transform="translate(57.52 145.5) rotate(-89.73)"/><rect class="cls-9" x="101.28" y="46.61" width="0.8" height="0.95" transform="translate(54.11 148.54) rotate(-89.73)"/><rect class="cls-9" x="103.01" y="48.4" width="2.48" height="0.68" transform="translate(55.01 152.75) rotate(-89.73)"/><rect class="cls-9" x="104.94" y="48.57" width="2.04" height="0.8" transform="translate(56.48 154.69) rotate(-89.73)"/><rect class="cls-9" x="107.73" y="47.01" width="1.01" height="0.91" transform="translate(60.25 155.46) rotate(-89.73)"/><rect class="cls-9" x="111.48" y="48.32" width="2.77" height="0.64" transform="translate(63.68 161.27) rotate(-89.73)"/><rect class="cls-9" x="115.17" y="46.42" width="0.52" height="1.18" transform="translate(67.87 162.21) rotate(-89.73)"/><path class="cls-10" d="M105.19,29v1.67L101,34.81,101,29h-.79v1.62L96,34.74l0-5.81h-.79l-.11,22h.79l0-4.76,4.18,4.21v.57h.79l0-4.81,4.17,4.21V51h.79l.1-22Zm0,2.36,0,8.43L101,35.54v0Zm-5,9.15-4.21,4.17,0-8.4,4.17,4.22Zm.81-4.25,4.18,4.21v.11l-4.22,4.17Zm-.76-5,0,8.52L96,35.57v-.14ZM95.94,45.47v-.13l4.21-4.18,0,8.52Zm5,0v0l4.21-4.18,0,8.43Z"/><path class="cls-6" d="M80.39,35.09l0,4.92h.78l0-3.83L83,38l.63.63h.27v-.4L83,37.36l-1.53-1.54-.31-.32v-.14l.27-.27ZM83.65,48v.68l1.25,1.26h1.19l0-3.83,1.78,1.8h.7L86.43,45.7H85.32v3.92L84.64,49Zm-3.29-6.22v3.21h1.11l2.36-2.34,1.53-1.51v2.27h.78l0-3.33H85l.36.36v0l-.36.35L83.13,42.6l-2,2,0-2.84Zm3.29-3.06.27.28L85,40h1.16l0-3.88.48.49h.69l-.81-.81H85.37l0,3.87-1.42-1.44v.4Zm-3.26-3.58,0,4.92h.78l0-3.83L83,38l.63.63h.27v-.4L83,37.36l-1.53-1.54-.31-.32v-.14l.27-.27ZM83.65,48v.68l1.25,1.26h1.19l0-3.83,1.78,1.8h.7L86.43,45.7H85.32v3.92L84.64,49Zm-3.29-6.22v3.21h1.11l2.36-2.34,1.53-1.51v2.27h.78l0-3.33H85l.36.36v0l-.36.35L83.13,42.6l-2,2,0-2.84Zm3.29-3.06.27.28L85,40h1.16l0-3.88.48.49h.69l-.81-.81H85.37l0,3.87-1.42-1.44v.4Zm-3.23-9.82-.1,22h.78l0-4.76.5.5,2,2,1.25,1.26.4.41v.57h.78l0-4.81,1.78,1.8L89,49l1.3,1.31v.62h.79l.1-22h-.78v1.67l-.37.36-2.33,2.31-1.52,1.5,0-5.86h-.78V30.5l-.42.41-1.62,1.6-.17.17-.54.54-.85.84-.62.61,0-5.81Zm10,2.41,0,8.43-1-1-2-2.05-.81-.81-.36-.37v0l.32-.32,1.89-1.86Zm-4.22,4.9,4.17,4.22v.1l-1.11,1.1-2.74,2.71-.37.36Zm.27,9.54-.32-.32v0l4.22-4.18,0,8.43-1.7-1.72Zm-5,0-.27-.28v-.13l.33-.33,2.36-2.34,1.53-1.51,0,8.53L84.64,49l-1-1Zm-.23-9.5L83,38l.63.63.27.28L85,40l.37.37v0l-.36.35L83.13,42.6l-2,2Zm.32-.36-.31-.32v-.14l.27-.27.34-.34,1.39-1.37.16-.16,2-2,0,8.52-1.42-1.44L83,37.36Zm2.16,2.85.27.28L85,40h1.16l0-3.88.48.49h.69l-.81-.81H85.37l0,3.87-1.42-1.44v.4Zm-3.29,3.06v3.21h1.11l2.36-2.34,1.53-1.51v2.27h.78l0-3.33H85l.36.36v0l-.36.35L83.13,42.6l-2,2,0-2.84ZM83.65,48v.68l1.25,1.26h1.19l0-3.83,1.78,1.8h.7L86.43,45.7H85.32v3.92L84.64,49ZM80.39,35.09l0,4.92h.78l0-3.83L83,38l.63.63h.27v-.4L83,37.36l-1.53-1.54-.31-.32v-.14l.27-.27Zm0,.72,0,4.2h.78l0-3.83L83,38l.63.63.27.28L85,40h1.16l0-3.88.48.49h.69l-.81-.81H85.37l0,3.87-1.42-1.44L83,37.36l-1.53-1.54Zm0,4.2v1.72h.79V40Zm0,0,0,4.93h1.11l2.36-2.34,1.53-1.51v2.27h.78l0-3.33H85l.36.36v0l-.36.35L83.13,42.6l-2,2,0-4.57Zm0-4.92,0,4.92h.78l0-3.83L83,38l.63.63h.68l-.4-.41L83,37.36l-1.53-1.54-.31-.32v-.14l.27-.27ZM83.65,48v.68l1.25,1.26h1.19l0-3.83,1.78,1.8h.7L86.43,45.7H85.32v3.92L84.64,49Z"/><rect class="cls-7" x="77.08" y="32.03" width="0.73" height="26.51" transform="translate(31.79 122.52) rotate(-89.73)"/><rect class="cls-7" x="77.11" y="27.11" width="0.73" height="26.51" transform="translate(36.74 117.64) rotate(-89.73)"/><rect class="cls-7" x="77.06" y="36.96" width="0.73" height="26.52" transform="translate(26.83 127.4) rotate(-89.73)"/><path class="cls-7" d="M64.27,35.73l26.48.13v-.72L64.3,35C64.29,35.25,64.27,35.49,64.27,35.73Z"/><path class="cls-7" d="M64.8,30.81l26,.13v-.73l-25.84-.13a.43.43,0,0,0,0,.11,2.38,2.38,0,0,0,0,.26C64.85,30.56,64.82,30.69,64.8,30.81Z"/><rect class="cls-8" x="70.06" y="26.72" width="3.1" height="3.69" transform="translate(42.7 100.04) rotate(-89.73)"/><rect class="cls-9" x="67.38" y="27.72" width="3.1" height="1.66" transform="translate(40.05 97.35) rotate(-89.73)"/><rect class="cls-8" x="81" y="26.77" width="3.1" height="3.69" transform="translate(53.53 111.03) rotate(-89.73)"/><rect class="cls-8" x="85" y="27.22" width="2.7" height="3.22" transform="translate(57.11 115.05) rotate(-89.73)"/><rect class="cls-8" x="70.61" y="32.08" width="2.71" height="3.22" transform="translate(37.92 105.49) rotate(-89.73)"/><path class="cls-8" d="M64.94,30.08h.14v-.66C65,29.64,65,29.86,64.94,30.08Z"/><path class="cls-8" d="M64.3,35H66l0-3.29H64.65A32.44,32.44,0,0,0,64.3,35Z"/><rect class="cls-8" x="65.97" y="32.3" width="2.48" height="2.95" transform="translate(33.11 100.83) rotate(-89.73)"/><rect class="cls-8" x="73.56" y="26.31" width="3.49" height="4.16" transform="translate(46.56 103.55) rotate(-89.73)"/><rect class="cls-8" x="77.39" y="27.32" width="2.58" height="3.08" transform="translate(49.45 107.4) rotate(-89.73)"/><rect class="cls-8" x="73.76" y="31.73" width="3.04" height="3.62" transform="translate(41.38 108.66) rotate(-89.73)"/><rect class="cls-8" x="71.27" y="47.6" width="2.04" height="2.42" transform="translate(23.13 120.86) rotate(-89.73)"/><rect class="cls-8" x="85.3" y="46.21" width="2.04" height="5.34" transform="translate(37.03 134.96) rotate(-89.73)"/><rect class="cls-8" x="78.17" y="46.83" width="2.77" height="3.29" transform="translate(30.69 127.8) rotate(-89.73)"/><rect class="cls-8" x="81.05" y="46.28" width="3.29" height="3.91" transform="translate(34.06 130.69) rotate(-89.73)"/><polygon class="cls-8" points="64.17 48.85 64.16 49.79 65.91 49.8 65.93 46.51 64.19 46.5 64.17 48.85"/><rect class="cls-8" x="65.9" y="47.09" width="2.48" height="2.95" transform="translate(18.26 115.47) rotate(-89.73)"/><rect class="cls-8" x="73.68" y="46.51" width="3.04" height="3.62" transform="translate(26.53 123.29) rotate(-89.73)"/><rect class="cls-8" x="78.19" y="32.25" width="2.58" height="3.08" transform="translate(45.31 113.11) rotate(-89.73)"/><rect class="cls-8" x="70.56" y="41.94" width="2.71" height="3.22" transform="translate(28.02 115.25) rotate(-89.73)"/><rect class="cls-8" x="74.28" y="42.16" width="1.89" height="3.62" transform="translate(30.9 118.99) rotate(-89.73)"/><rect class="cls-8" x="77.83" y="41.42" width="3.21" height="3.82" transform="translate(35.72 122.56) rotate(-89.73)"/><rect class="cls-8" x="81.45" y="42.37" width="2.35" height="2.8" transform="translate(38.46 126.19) rotate(-89.73)"/><rect class="cls-8" x="84.27" y="42.76" width="1.6" height="2.8" transform="translate(40.51 129.02) rotate(-89.73)"/><rect class="cls-8" x="68.06" y="42.12" width="2.01" height="3.51" transform="translate(24.85 112.74) rotate(-89.73)"/><rect class="cls-8" x="64.05" y="42.64" width="2.38" height="2.07" transform="translate(21.25 108.7) rotate(-89.73)"/><rect class="cls-8" x="86.31" y="41.24" width="3.41" height="4.06" transform="translate(44.33 131.08) rotate(-89.73)"/><rect class="cls-8" x="68.47" y="37" width="2.71" height="3.22" transform="translate(30.88 108.24) rotate(-89.73)"/><rect class="cls-8" x="64.76" y="37.37" width="2.04" height="3.11" transform="translate(26.55 104.51) rotate(-89.73)"/><rect class="cls-8" x="71.65" y="36.26" width="3.39" height="4.04" transform="translate(34.71 111.45) rotate(-89.73)"/><rect class="cls-8" x="76.1" y="36.64" width="3.07" height="3.65" transform="translate(38.79 115.91) rotate(-89.73)"/><rect class="cls-8" x="79.65" y="37.16" width="2.04" height="3.65" transform="translate(41.29 119.48) rotate(-89.73)"/><rect class="cls-8" x="82.48" y="37.52" width="1.35" height="3.65" transform="translate(43.41 122.32) rotate(-89.73)"/><rect class="cls-8" x="84.95" y="35.63" width="3.39" height="5.44" transform="translate(47.88 124.81) rotate(-89.73)"/><rect class="cls-8" x="83.43" y="32.28" width="2.58" height="3.08" transform="translate(50.5 118.37) rotate(-89.73)"/><rect class="cls-8" x="84.32" y="30.71" width="1.88" height="6.92" transform="translate(50.68 119.26) rotate(-89.73)"/><rect class="cls-9" x="72.48" y="26.27" width="0.39" height="1.11" transform="translate(45.5 99.37) rotate(-89.73)"/><path class="cls-9" d="M65.08,29.42v.66h1V27.38H65.6c-.13.46-.26.93-.37,1.4Z"/><rect class="cls-9" x="78.91" y="28.37" width="3.1" height="0.48" transform="translate(51.47 108.93) rotate(-89.73)"/><rect class="cls-9" x="83.22" y="28.65" width="2.7" height="0.35" transform="translate(55.34 113.26) rotate(-89.73)"/><rect class="cls-9" x="79.63" y="26.5" width="0.52" height="1.64" transform="translate(52.19 107.07) rotate(-89.73)"/><rect class="cls-9" x="82.36" y="32.39" width="0.7" height="0.95" transform="translate(49.45 115.42) rotate(-89.73)"/><rect class="cls-9" x="80.47" y="33.76" width="1.88" height="0.78" transform="translate(46.87 115.39) rotate(-89.73)"/><rect class="cls-9" x="76.22" y="33.35" width="2.58" height="0.85" transform="translate(43.36 111.13) rotate(-89.73)"/><rect class="cls-9" x="72.75" y="31.62" width="0.34" height="1.1" transform="translate(40.39 104.94) rotate(-89.73)"/><rect class="cls-9" x="68.48" y="33.17" width="2.71" height="1.03" transform="translate(35.82 103.36) rotate(-89.73)"/><rect class="cls-9" x="65.99" y="31.74" width="0.8" height="0.78" transform="translate(33.94 98.37) rotate(-89.73)"/><rect class="cls-9" x="67.65" y="33.59" width="2.48" height="0.39" transform="translate(34.77 102.51) rotate(-89.73)"/><rect class="cls-9" x="66.53" y="38.27" width="2.71" height="0.66" transform="translate(28.96 106.3) rotate(-89.73)"/><rect class="cls-9" x="70.49" y="36.42" width="0.69" height="1" transform="translate(33.58 107.57) rotate(-89.73)"/><rect class="cls-9" x="74.05" y="38.24" width="3.07" height="0.44" transform="translate(36.77 113.86) rotate(-89.73)"/><rect class="cls-9" x="82.46" y="37.2" width="2.04" height="0.91" transform="translate(45.42 120.95) rotate(-89.73)"/><rect class="cls-9" x="84.67" y="42.04" width="1.81" height="0.84" transform="translate(42.71 127.83) rotate(-89.73)"/><rect class="cls-9" x="75.68" y="43.08" width="3.21" height="0.48" transform="translate(33.59 120.4) rotate(-89.73)"/><rect class="cls-9" x="76.2" y="41.94" width="1.32" height="0.87" transform="translate(34.11 119.03) rotate(-89.73)"/><rect class="cls-9" x="73.46" y="42.27" width="0.82" height="0.68" transform="translate(30.9 116.27) rotate(-89.73)"/><rect class="cls-9" x="65.39" y="43.37" width="2.38" height="0.62" transform="translate(22.58 110.05) rotate(-89.73)"/><rect class="cls-9" x="66" y="46.44" width="0.8" height="0.95" transform="translate(19.17 113.09) rotate(-89.73)"/><rect class="cls-9" x="67.72" y="48.23" width="2.48" height="0.69" transform="translate(20.06 117.3) rotate(-89.73)"/><rect class="cls-9" x="69.66" y="48.4" width="2.04" height="0.8" transform="translate(21.53 119.24) rotate(-89.73)"/><rect class="cls-9" x="72.44" y="46.84" width="1.01" height="0.91" transform="translate(25.31 120.01) rotate(-89.73)"/><rect class="cls-9" x="76.2" y="48.15" width="2.77" height="0.64" transform="translate(28.74 125.82) rotate(-89.73)"/><rect class="cls-9" x="79.89" y="46.25" width="0.52" height="1.18" transform="translate(32.92 126.76) rotate(-89.73)"/><path class="cls-10" d="M68.62,48.3V49l.68.69.15.15H70.6l0-4.93h-.79l0,4.6L69.3,49Zm-1.73-5V44l.42-.42.71-.71,1.83-1.81,0,3.83h.79l0-4.93H69.54l.31.32v.1Zm1.73,5V49l.68.69.15.15H70.6l0-4.93h-.79l0,4.6L69.3,49Zm-1.73-5V44l.42-.42.71-.71,1.83-1.81,0,3.83h.79l0-4.93H69.54l.31.32v.1Zm-2.72,5.54v.69l.65.66v.57h.79l0-4.81.55.54.69.71.1.1L68.62,49l.68.69.51.51v.62h.79l.11-22h-.79v1.67l-2.09,2.07L66,34.35l-.29.29,0-5.86h-.49l-.15.64c0,.22-.09.44-.14.66a.43.43,0,0,0,0,.11v.21l0,.05c0,.11-.05.24-.07.36s-.06.32-.08.47l.19-.19,0,8.52L64.23,39v.68l.65.66h0l-.66.65v.68l.66-.65,0,8.53Zm5.69-9.26-4.17-4.21v-.05L66,35l2.49-2.47,1.4-1.39Zm-3.59,4.34-.63.62,0-8.49L67.56,38l.65.67,1.64,1.66v.1Zm-.63,1.35v0l.37-.37.26-.25,1-1,.71-.71,1.83-1.81,0,8.43L69.3,49l-.68-.68-1-1-.78-.79h0Zm1.25-2V44l.42-.42.71-.71,1.83-1.81,0,3.83h.79l0-4.93H69.54l.31.32v.1Zm1.73,5V49l.68.69.15.15H70.6l0-4.93h-.79l0,4.6L69.3,49ZM69.88,35v2.22h.79V35Zm-3,8.27V44l.42-.42.71-.71,1.83-1.81,0,3.83h.79l0-4.93H69.54l.31.32v.1Zm-2-11.59,0,6.17h.79V36.06L67.56,38l.65.67L69.54,40h1.11l0-4.92h-.79l0,4.55-4.17-4.21v-.05L66,35h0v-.67l-.29.29V31.73Zm0,10.77v2.37H66l.26-.25.62-.62v-.69l-.62.62-.63.62V42.49Z"/><path class="cls-10" d="M67,23.53l55.88.27-.46-.66-55.13-.27C67.14,23.09,67,23.31,67,23.53Z"/><polygon class="cls-10" points="100.7 25.17 100.71 23.69 101.11 23.69 101.11 25.17 102.99 26.67 102.99 26.99 98.81 26.97 98.81 26.65 100.7 25.17"/><polygon class="cls-11" points="91.72 25.13 91.72 23.65 92.13 23.65 92.12 25.13 94 26.63 94 26.94 89.82 26.92 89.82 26.61 91.72 25.13"/><polygon class="cls-12" points="82.08 25.08 82.08 23.6 82.49 23.6 82.48 25.08 84.36 26.58 84.36 26.9 80.18 26.88 80.18 26.56 82.08 25.08"/><polygon class="cls-13" points="41.3 48.86 41.31 46.54 44.73 46.55 44.74 44.8 45.08 44.8 45.09 42.13 48.03 42.14 48.02 43.49 49.59 43.5 49.59 42.26 50.53 42.27 50.54 40.5 54.61 40.52 54.59 43.92 55.44 43.93 55.44 44.89 56.63 44.9 56.64 44.91 57.55 44.91 57.53 47.26 58.32 47.27 58.33 47.27 59.58 47.28 59.56 50.75 48.61 50.7 48.61 50.69 44.71 50.67 42.74 50.66 42.2 50.66 38.77 50.64 38.78 48.85 41.3 48.86"/><path class="cls-14" d="M17.55,26.13v-.68a2.78,2.78,0,1,0-2.78-2.78v2.77h2.3v.68l-3,0V22.67a3.46,3.46,0,1,1,3.46,3.46Z"/><path class="cls-14" d="M16.31,29.61H14.09v-3h.68v2.32h.87V22.7a1.92,1.92,0,1,1,1.91,1.91v-.68a1.24,1.24,0,1,0-1.24-1.23Z"/><path class="cls-14" d="M20.39,24.75A3.77,3.77,0,0,0,18,23.92h-.41v.68H18a3.12,3.12,0,0,1,2,.64,1.41,1.41,0,0,1,.42,1.07v2.62h-1V26.72a1.17,1.17,0,0,0-.34-.85,1.91,1.91,0,0,0-1.25-.43h-.22v.68h.23a1.16,1.16,0,0,1,.76.24.44.44,0,0,1,.14.36v2.89H21v-3.3A2.12,2.12,0,0,0,20.39,24.75Z"/><path d="M29.69,23.35a2.48,2.48,0,0,1-.11.73,2.85,2.85,0,0,1-.29.64,2.44,2.44,0,0,1-.45.52,2.33,2.33,0,0,1-.59.39l1.44,2.22H28.25l-1.27-2h-.82l.49-1.2h.52a1.28,1.28,0,0,0,.93-.4,1.23,1.23,0,0,0,.28-.43,1.21,1.21,0,0,0,.1-.5,1.24,1.24,0,0,0-.1-.5,1.19,1.19,0,0,0-.28-.42,1.27,1.27,0,0,0-.93-.39H25.75v5.81H24.54v-7h2.63a2.33,2.33,0,0,1,1,.21,2.41,2.41,0,0,1,.79.54,2.61,2.61,0,0,1,.55.79A2.49,2.49,0,0,1,29.69,23.35Z"/><path d="M35.17,22.83v5H34v-2.5a1.43,1.43,0,0,0-.42-1,1.4,1.4,0,0,0-1-.42A1.5,1.5,0,0,0,32,24a1.67,1.67,0,0,0-.47.31,1.43,1.43,0,0,0-.42,1,1.38,1.38,0,0,0,.42,1,1.36,1.36,0,0,0,.47.32,1.49,1.49,0,0,0,.55.1,1.38,1.38,0,0,0,.55-.1l.43,1.07a2.32,2.32,0,0,1-1.08.23,2.43,2.43,0,0,1-1-.2,2.58,2.58,0,0,1-.81-.57,2.45,2.45,0,0,1-.53-.84,2.68,2.68,0,0,1-.19-1,2.78,2.78,0,0,1,.19-1,2.45,2.45,0,0,1,.53-.84,2.4,2.4,0,0,1,.81-.56,2.59,2.59,0,0,1,1.89-.06,2.91,2.91,0,0,1,.67.38v-.4Z"/><path d="M39.94,23.66l-2.41,3h2.29v1.2H35.67V27l2.42-3H35.88V22.84h4.06Z"/><path d="M42.29,22.84a2,2,0,0,1,.8-.15v1.2a1.39,1.39,0,0,0-1,.42,1.46,1.46,0,0,0-.42,1v2.51h-1.2v-5h1.2v.39A2.71,2.71,0,0,1,42.29,22.84Z"/><path d="M45.75,22.7a2.65,2.65,0,0,1,2.44,1.61,2.61,2.61,0,0,1,.21,1,2.52,2.52,0,0,1-.21,1,2.55,2.55,0,0,1-.57.84,2.71,2.71,0,0,1-.84.57,2.75,2.75,0,0,1-2.06,0,2.88,2.88,0,0,1-.85-.57,2.69,2.69,0,0,1-.56-.84,2.52,2.52,0,0,1-.21-1,2.61,2.61,0,0,1,.21-1,2.55,2.55,0,0,1,1.41-1.4A2.53,2.53,0,0,1,45.75,22.7Zm0,1.2a1.39,1.39,0,0,0-1,.42,1.43,1.43,0,0,0-.42,1,1.38,1.38,0,0,0,.42,1,1.32,1.32,0,0,0,.46.32,1.54,1.54,0,0,0,.56.1,1.36,1.36,0,0,0,1-.42,1.38,1.38,0,0,0,.42-1,1.43,1.43,0,0,0-1.44-1.45Z"/><path d="M51.45,22.7a2.56,2.56,0,0,1,1,.21,2.53,2.53,0,0,1,.84.56,2.71,2.71,0,0,1,.57.84,2.79,2.79,0,0,1,.2,1,2.65,2.65,0,0,1-1.61,2.43,2.78,2.78,0,0,1-2.07,0,2.61,2.61,0,0,1-1.61-2.43,2.79,2.79,0,0,1,.2-1,2.71,2.71,0,0,1,.57-.84,2.53,2.53,0,0,1,.84-.56A2.58,2.58,0,0,1,51.45,22.7Zm0,1.2a1.4,1.4,0,0,0-1,.42,1.43,1.43,0,0,0-.42,1,1.38,1.38,0,0,0,.42,1,1.36,1.36,0,0,0,.47.32,1.5,1.5,0,0,0,.56.1,1.49,1.49,0,0,0,.55-.1,1.46,1.46,0,0,0,.47-.32,1.38,1.38,0,0,0,.42-1,1.43,1.43,0,0,0-.42-1A1.46,1.46,0,0,0,51.45,23.9Z"/></g></g></g></svg>