<svg xmlns="http://www.w3.org/2000/svg" viewBox="0 0 181.64 53.07"><defs><style>.cls-1{isolation:isolate;}.cls-2{fill:#5b5567;}.cls-3{fill:#ccc;}.cls-4{fill:#a6a6a6;}.cls-5{fill:#e8f0f2;}.cls-10,.cls-6,.cls-7{fill:#ff5733;}.cls-7{opacity:0.65;}.cls-10,.cls-7{mix-blend-mode:multiply;}.cls-8{fill:#e6e7e8;}.cls-9{fill:#d8e2e5;}.cls-11{fill:#b1bfc3;}.cls-12{fill:#fff;}.cls-13{fill:#f1f2f2;}</style></defs><title>cargo_airplane_alternate</title><g class="cls-1"><g id="Layer_2" data-name="Layer 2"><g id="cargo-airplane"><g id="back_wheels"><rect x="91.19" y="42.36" width="1.9" height="7.15"/><rect x="89.24" y="49.44" width="5.76" height="1.68"/><path class="cls-2" d="M92,50.28a2.79,2.79,0,1,1-2.79-2.8A2.79,2.79,0,0,1,92,50.28Z"/><path class="cls-2" d="M97.79,50.28a2.8,2.8,0,1,1-2.8-2.8A2.8,2.8,0,0,1,97.79,50.28Z"/><rect class="cls-3" x="93.58" y="42.25" width="0.75" height="3.92" transform="translate(-7.25 67.45) rotate(-38.13)"/><path class="cls-4" d="M90.53,50.28a1.35,1.35,0,1,1-1.35-1.36A1.35,1.35,0,0,1,90.53,50.28Z"/><path class="cls-4" d="M96.35,50.28A1.36,1.36,0,1,1,95,48.92,1.36,1.36,0,0,1,96.35,50.28Z"/></g><path class="cls-5" d="M2.54,27.21c0,3.11,2.05,3.47,2.05,3.47s24.57,5.91,38.85,9.18a119.82,119.82,0,0,0,29,2.5h79.88c14.52,0,29.36-6.17,29.36-9,0-3-9.69-7.06-9.69-7.06l-.4-.35c-.56-.47-1.7-1.39-3.12-2.39-.27-.2-.55-.38-.83-.58-2.5-1.69-7-1.58-15.17-1.58-19.35,0-31.95,2.76-31.95,2.76H4.76A2.82,2.82,0,0,0,2.54,27.21Z"/><path class="cls-6" d="M115.43,35.8V35A3.48,3.48,0,1,0,112,31.48v3.46l2.87,0v.84l-3.71,0v-4.3a4.33,4.33,0,1,1,4.32,4.32Z"/><path class="cls-6" d="M113.88,40.15h-2.77V36.41H112v2.9H113v-7.8a2.39,2.39,0,1,1,2.39,2.39v-.84a1.55,1.55,0,1,0-1.55-1.55Z"/><path class="cls-6" d="M119,34.08a4.73,4.73,0,0,0-3-1h-.51v.85H116a3.86,3.86,0,0,1,2.43.8,1.77,1.77,0,0,1,.52,1.34v3.28h-1.22V36.54a1.44,1.44,0,0,0-.43-1.06,2.35,2.35,0,0,0-1.56-.54h-.27v.85h.29a1.49,1.49,0,0,1,1,.3.57.57,0,0,1,.17.45v3.61h2.91V36A2.6,2.6,0,0,0,119,34.08Z"/><path d="M130.6,32.33a3,3,0,0,1-.5,1.7,2.73,2.73,0,0,1-.56.66,3.22,3.22,0,0,1-.73.49L130.6,38h-1.79l-1.59-2.47h-1L126.8,34h.65a1.62,1.62,0,0,0,1.17-.48A1.73,1.73,0,0,0,129,33a1.59,1.59,0,0,0,0-1.26,1.54,1.54,0,0,0-.35-.52,1.59,1.59,0,0,0-1.17-.49h-1.78V38h-1.5V29.18h3.28a3,3,0,0,1,1.23.26,3.09,3.09,0,0,1,1,.67,3.28,3.28,0,0,1,.68,1A3,3,0,0,1,130.6,32.33Z"/><path d="M137.46,31.68V38H136V34.82a1.72,1.72,0,0,0-.52-1.27,1.77,1.77,0,0,0-1.28-.53,1.82,1.82,0,0,0-.7.14,1.79,1.79,0,0,0-.58,2.93,1.63,1.63,0,0,0,.58.4,2,2,0,0,0,.7.13,1.6,1.6,0,0,0,.67-.13l.54,1.34a3.18,3.18,0,0,1-3.62-.67,3.32,3.32,0,0,1-.66-1.06,3.39,3.39,0,0,1-.24-1.28,3.48,3.48,0,0,1,.24-1.29,3.17,3.17,0,0,1,.66-1.05,3,3,0,0,1,1-.71,3.13,3.13,0,0,1,1.27-.25,3.08,3.08,0,0,1,1.09.18,3.41,3.41,0,0,1,.84.48v-.5Z"/><path d="M143.42,32.72l-3,3.73h2.87V38h-5.19V37l3-3.74h-2.75V31.69h5.07Z"/><path d="M146.35,31.69a2.64,2.64,0,0,1,1-.19V33a1.74,1.74,0,0,0-1.28.52,1.82,1.82,0,0,0-.53,1.28V38h-1.5V31.68h1.5v.49A3.54,3.54,0,0,1,146.35,31.69Z"/><path d="M150.68,31.52a3.26,3.26,0,0,1,1.29.25,3.3,3.3,0,0,1,2,3.05,3.22,3.22,0,0,1-.26,1.28,3.46,3.46,0,0,1-.71,1.06,3.27,3.27,0,0,1-1.05.7,3.33,3.33,0,0,1-2.58,0,3.17,3.17,0,0,1-1.76-1.76,3.05,3.05,0,0,1-.26-1.28,3.13,3.13,0,0,1,.26-1.29,3.27,3.27,0,0,1,.7-1.05,3.46,3.46,0,0,1,1.06-.71A3.26,3.26,0,0,1,150.68,31.52Zm0,1.5a1.75,1.75,0,0,0-1.28.53,1.79,1.79,0,0,0,0,2.54,1.63,1.63,0,0,0,.58.4,2.07,2.07,0,0,0,.7.13,2,2,0,0,0,.69-.13,1.87,1.87,0,0,0,.59-.4,1.81,1.81,0,0,0,0-2.54A1.82,1.82,0,0,0,150.68,33Z"/><path d="M157.8,31.52a3.26,3.26,0,0,1,1.29.25,3.3,3.3,0,0,1,2,3.05,3.22,3.22,0,0,1-.26,1.28,3.46,3.46,0,0,1-.71,1.06,3.27,3.27,0,0,1-1,.7,3.33,3.33,0,0,1-2.58,0,3.32,3.32,0,0,1-1.06-.7,3.43,3.43,0,0,1-.7-1.06,3.05,3.05,0,0,1-.26-1.28,3.13,3.13,0,0,1,.26-1.29,3.27,3.27,0,0,1,.7-1.05,3.35,3.35,0,0,1,1.06-.71A3.26,3.26,0,0,1,157.8,31.52Zm0,1.5a1.75,1.75,0,0,0-1.28.53,1.79,1.79,0,0,0,0,2.54,1.63,1.63,0,0,0,.58.4,2.07,2.07,0,0,0,.7.13,2,2,0,0,0,.69-.13,1.87,1.87,0,0,0,.59-.4,1.81,1.81,0,0,0,0-2.54A1.82,1.82,0,0,0,157.8,33Z"/><path class="cls-6" d="M2.54,27.07c25.17-4.79,50,9.67,64,14.29,1.15.38,2.33.74,3.54,1,1.5,0,2.36-.06,2.36-.06h38.88A120.58,120.58,0,0,0,125.93,38c18.37-6.64,39.89-8.28,55.7-4.82a2.15,2.15,0,0,0-.36-.89c-15.88-3.26-36.55-3.53-55.23,2.44-24.21,7.75-44.45,7.93-59.55,3.54C52.34,34.17,28,21.75,2.62,26.37A3,3,0,0,0,2.54,27.07Z"/><path class="cls-7" d="M8.75,29.48l1-1,.39.26S20.82,30.06,26,30.06a41.82,41.82,0,0,0,10-1.34l-5.75,5.75c3.71.85,7.28,1.66,10.38,2.35a128.2,128.2,0,0,0,30,2.53,82.35,82.35,0,0,0,19.61,1.79l.4-2.47.08-.46c1.32.11,2.88.22,4.57.32l-1.42.28v1l-.38.15L91,41v.14a110.28,110.28,0,0,0,16.85-1.77h1.54l.06-.35c7.82-.16,11.29-1.53,11.29-1.53l-1.88,1.88h35c11.19,0,22.55-3.44,27.7-6.37a1.19,1.19,0,0,1,.08.41c0,2.81-14.84,9-29.37,9H72.39a120.11,120.11,0,0,1-29-2.49C29.15,36.6,4.6,30.69,4.6,30.69a2.8,2.8,0,0,1-2-2.64Z"/><path class="cls-6" d="M0,0,1.05,4l2,7.65.26,1L5,18.76l1.44,5.43H37.89c-6,0-24.08-19.43-28.41-24.19Z"/><path class="cls-6" d="M36,28.72a41.53,41.53,0,0,1-10,1.35c-5.2,0-15.86-1.35-15.86-1.35L1.35,23v-.75H20.2L36,27.73Z"/><path class="cls-6" d="M120.71,37.47S116.8,39,108,39s-21.39-1.14-21.39-1.14H79.7L55.1,29.93v-.47H66.77l53.94,6.88Z"/><path class="cls-8" d="M96.63,37.56v7.55a26.84,26.84,0,0,0,7,.86,30.59,30.59,0,0,0,4.74-.37l1.35-8.25a28.14,28.14,0,0,0-6.09-.63A27.32,27.32,0,0,0,96.63,37.56Z"/><path class="cls-6" d="M109.69,37.35l-1.35,8.25-1,.14,1.45-8.58Zm-13.06.21v7.55l.87.22v-8C97.2,37.41,96.91,37.49,96.63,37.56Z"/><polygon class="cls-6" points="96.63 38.29 96.63 41.34 96.63 44.39 93.93 43.87 93.93 41.34 93.93 38.82 96.63 38.29"/><polygon class="cls-6" points="93.93 39.82 93.93 41.34 93.93 42.87 90.97 41.7 90.97 41.34 90.97 40.99 93.93 39.82"/><path class="cls-8" d="M78.35,34.52v7.54a26.86,26.86,0,0,0,7,.86,30.36,30.36,0,0,0,4.73-.37l1.35-8.25a27.5,27.5,0,0,0-6.08-.63A26.88,26.88,0,0,0,78.35,34.52Z"/><path class="cls-6" d="M91.41,34.3l-1.35,8.25-1,.14,1.44-8.57C90.81,34.17,91.12,34.23,91.41,34.3Zm-13.06.22v7.54l.87.22v-8C78.93,34.36,78.63,34.44,78.35,34.52Z"/><polygon class="cls-6" points="78.35 35.24 78.35 38.29 78.35 41.34 75.65 40.82 75.65 38.29 75.65 35.77 78.35 35.24"/><polygon class="cls-9" points="75.65 36.77 75.65 38.29 75.65 39.82 72.69 38.65 72.69 38.29 72.69 37.94 75.65 36.77"/><path class="cls-10" d="M72.69,37.94v.7l.43.17a27.28,27.28,0,0,1,9-1.4,27.68,27.68,0,0,1,8.59,1.26l.72-4.37c-.29-.07-.61-.13-.92-.19h0a28.52,28.52,0,0,0-5.17-.45,27.14,27.14,0,0,0-6.11.65v0c-.29.05-.58.14-.86.21v.73l-2.71.52v1Z"/><path class="cls-11" d="M151.88,25.43a.55.55,0,0,0,.55.55h0a.55.55,0,0,0,.56-.55v-.84a.55.55,0,0,0-.56-.55h0a.55.55,0,0,0-.55.55Z"/><path class="cls-11" d="M150,25.43a.55.55,0,0,0,.56.55h0a.55.55,0,0,0,.55-.55v-.84a.55.55,0,0,0-.55-.55h0a.55.55,0,0,0-.56.55Z"/><path class="cls-11" d="M148.13,25.43a.55.55,0,0,0,.55.55h0a.55.55,0,0,0,.56-.55v-.84a.55.55,0,0,0-.56-.55h0a.55.55,0,0,0-.55.55Z"/><path class="cls-11" d="M146.26,25.43a.55.55,0,0,0,.55.55h0a.54.54,0,0,0,.55-.55v-.84a.54.54,0,0,0-.55-.55h0a.55.55,0,0,0-.55.55Z"/><path class="cls-11" d="M144.38,25.43a.55.55,0,0,0,.56.55h0a.55.55,0,0,0,.55-.55v-.84a.55.55,0,0,0-.55-.55h0a.55.55,0,0,0-.56.55Z"/><polygon class="cls-12" points="120.71 37.47 66.77 29.46 55.1 29.46 55.1 28.18 64.82 28.95 66.73 29.06 120.71 36.34 120.71 37.47"/><rect class="cls-13" x="157.27" y="24.04" width="2.22" height="3.41" rx="0.56"/><polygon class="cls-13" points="36.01 28.72 20.08 22.81 1.35 22.97 1.35 22.22 20.2 22.22 36.01 27.73 36.01 28.72"/><polygon class="cls-11" points="164.2 25.98 166.52 25.98 166.54 23.59 164.99 23.59 164.63 23.98 164.2 25.98"/><path class="cls-11" d="M167,23.59,167,26h4.54c-.56-.47-1.7-1.39-3.12-2.39Z"/><path class="cls-10" d="M91,41v.67a14.93,14.93,0,0,1,3.19-1.3,30.84,30.84,0,0,1,15.06-.15l.47-2.86-.91-.19h0a29.45,29.45,0,0,0-5.17-.45,28.3,28.3,0,0,0-6.11.64h0c-.29.06-.58.14-.87.21v.73l-2.7.53v1l-.38.15Z"/><g id="front_wheels"><rect x="145.98" y="42.36" width="1.9" height="7.15"/><rect class="cls-3" x="144.02" y="49.44" width="5.76" height="1.68"/><path class="cls-2" d="M146.76,50.28a2.8,2.8,0,1,1-2.79-2.8A2.79,2.79,0,0,1,146.76,50.28Z"/><path class="cls-2" d="M152.57,50.28a2.8,2.8,0,1,1-2.79-2.8A2.79,2.79,0,0,1,152.57,50.28Z"/><rect class="cls-3" x="148.37" y="42.25" width="0.75" height="3.92" transform="translate(4.42 101.22) rotate(-38.11)"/><circle class="cls-4" cx="143.97" cy="50.28" r="1.35"/><circle class="cls-4" cx="149.78" cy="50.28" r="1.35"/></g></g></g></g></svg>