<svg xmlns="http://www.w3.org/2000/svg" viewBox="0 0 15.17 10.51"><defs><style>.cls-1{isolation:isolate;}.cls-2{fill:#61514d;}.cls-3,.cls-5{fill:#c0bdc4;}.cls-3,.cls-8{mix-blend-mode:multiply;}.cls-4{fill:#ffc842;}.cls-6{fill:#382e2b;}.cls-7{fill:#5d4e49;}.cls-8{fill:#eadbcd;}.cls-9{fill:#675d60;}.cls-10{fill:#37383a;}.cls-11{fill:#6d6e71;}.cls-12{fill:#56595b;}.cls-13{fill:#bcbec0;}.cls-14{fill:#423734;}.cls-15{fill:#f0cea8;}.cls-16{fill:#e1ccb0;}.cls-17{fill:#d2bfa5;}.cls-18{fill:#fff;opacity:0.13;}</style></defs><title>Asset 1</title><g class="cls-1"><g id="Layer_2" data-name="Layer 2"><g id="Layer_1-2" data-name="Layer 1"><rect class="cls-2" x="4.35" width="1.01" height="9.48"/><rect class="cls-2" x="3.79" y="6.15" width="0.57" height="3.32"/><rect class="cls-3" x="4.07" y="6.15" width="0.28" height="3.32"/><polygon class="cls-4" points="3.79 9.48 0.06 9.36 0 9.29 0 9.07 3.79 9.07 3.79 9.48"/><rect class="cls-3" x="4.66" y="0.31" width="0.38" height="8.86"/><rect class="cls-2" x="5.36" y="0.87" width="0.53" height="1.23"/><rect class="cls-5" x="5.43" y="2.1" width="0.39" height="0.07"/><rect class="cls-2" x="5.52" y="2.17" width="0.21" height="7.31"/><rect class="cls-2" x="5.2" y="3.18" width="0.78" height="0.19"/><rect class="cls-6" x="5.36" y="0.64" width="0.62" height="0.23"/><path class="cls-2" d="M11.5,2.72l-.09-.59L11,1.73H8.45l-.89.6L6.24,6V7h.41l.81.51H9.22l2.59-1.8V4.9ZM11.45,5.5,9.1,7.13H7.56l-.8-.51H6.6V6L7.84,2.61h0l.77-.52h2.25l.22.21.37,2.63Z"/><polygon class="cls-7" points="5.61 9.67 13.16 9.67 13.73 9.67 14.74 9.24 14.74 7.51 6.77 7.51 5.89 7.16 5.3 7.16 5.3 8.21 5.61 9.67"/><path class="cls-4" d="M14.63,5.87l-.09-.1H12L9.43,7.56l-.2.14H7.34l-.22-.14-.64-.41H6v.27A1.68,1.68,0,0,1,7.71,9.07v.29h4.06s0,0,0-.07V9.21a1.53,1.53,0,0,1,1.47-1.36,1.57,1.57,0,0,1,1.43,1l0,.06s0,.08,0,.13h0l0,.21.3-.15.1-.05V6.4Z"/><path class="cls-8" d="M14.63,5.87,14.31,6c-.29.13-.64.26-1,.41A10.82,10.82,0,0,0,12.08,7a4.46,4.46,0,0,0-.86.58,1.93,1.93,0,0,0-.76,1.51H7.71v.29h4.06s0,0,0-.07a1.52,1.52,0,0,1,1.47-1.41,1.55,1.55,0,0,1,1.45,1s0,.08,0,.13h0l0,.21.3-.15.1-.05V6.4Z"/><path class="cls-9" d="M15.17,7.84V9l-.1.05-.3.15h0l-.07,0a1.42,1.42,0,0,0-2.84.08h-.21A1.58,1.58,0,0,1,13.2,7.79h1.55A1.86,1.86,0,0,1,15.17,7.84Z"/><path class="cls-10" d="M7.49,9A1.45,1.45,0,1,1,6,7.59,1.45,1.45,0,0,1,7.49,9Z"/><polygon class="cls-10" points="7.52 8.99 7.5 8.78 7.01 8.83 7.47 8.68 7.41 8.48 6.95 8.63 7.37 8.39 7.27 8.21 6.84 8.45 7.21 8.13 7.07 7.97 6.71 8.3 6.99 7.91 6.82 7.78 6.54 8.18 6.73 7.73 6.54 7.65 6.35 8.09 6.45 7.62 6.24 7.57 6.14 8.05 6.14 7.56 5.94 7.56 5.94 8.04 5.83 7.57 5.63 7.62 5.73 8.09 5.54 7.65 5.34 7.73 5.54 8.17 5.25 7.78 5.09 7.91 5.37 8.3 5.01 7.97 4.87 8.13 5.23 8.45 4.81 8.21 4.71 8.39 5.13 8.63 4.67 8.48 4.6 8.68 5.06 8.83 4.58 8.78 4.56 8.99 5.04 9.04 4.56 9.09 4.58 9.3 5.06 9.24 4.6 9.4 4.67 9.59 5.13 9.44 4.71 9.69 4.81 9.87 5.23 9.62 4.87 9.95 5.01 10.1 5.37 9.78 5.09 10.17 5.25 10.29 5.54 9.9 5.34 10.34 5.54 10.43 5.73 9.98 5.63 10.46 5.83 10.5 5.94 10.03 5.94 10.51 6.14 10.51 6.14 10.03 6.24 10.5 6.45 10.46 6.35 9.99 6.54 10.43 6.73 10.34 6.54 9.9 6.82 10.29 6.99 10.17 6.71 9.78 7.07 10.1 7.21 9.95 6.85 9.63 7.27 9.87 7.37 9.69 6.95 9.44 7.41 9.59 7.47 9.39 7.01 9.24 7.5 9.3 7.52 9.09 7.04 9.04 7.52 8.99"/><path class="cls-11" d="M7,9a1,1,0,0,1-1,1H6a1,1,0,0,1-1-1h0a1,1,0,0,1,1-.95H6A1,1,0,0,1,7,9Z"/><path class="cls-12" d="M6.83,9A.79.79,0,1,1,6,8.25.79.79,0,0,1,6.83,9Z"/><path class="cls-13" d="M6.11,8.5A.07.07,0,0,1,6,8.5a.07.07,0,0,1,.14,0ZM6,9.5a.07.07,0,1,0,.07.07A.07.07,0,0,0,6,9.5Zm-.3-1a.08.08,0,0,0,0,.09.08.08,0,0,0,.1,0,.06.06,0,0,0,0-.09A.07.07,0,0,0,5.74,8.52Zm.53.92a.07.07,0,0,0,0,.09.06.06,0,0,0,.09,0,.07.07,0,0,0,0-.09S6.31,9.42,6.27,9.44Zm-.75-.7a.07.07,0,0,0,0,.09.07.07,0,1,0,0-.09Zm.92.53a.06.06,0,0,0,0,.09.07.07,0,0,0,.09,0,.06.06,0,0,0,0-.09A.08.08,0,0,0,6.44,9.27ZM5.44,9s0,.07.06.07A.08.08,0,0,0,5.57,9,.07.07,0,0,0,5.5,9,.07.07,0,0,0,5.44,9ZM6.5,9a.08.08,0,0,0,.07.07A.08.08,0,0,0,6.64,9,.07.07,0,0,0,6.57,9,.08.08,0,0,0,6.5,9Zm-1,.3a.07.07,0,0,0,.09,0,.07.07,0,0,0,0-.09.08.08,0,0,0-.1,0A.06.06,0,0,0,5.52,9.34Zm.92-.54a.07.07,0,0,0,.1,0,.07.07,0,0,0,0-.09.07.07,0,1,0-.12.06Zm-.7.76a.06.06,0,0,0,.09,0,.07.07,0,0,0,0-.09.07.07,0,0,0-.1,0A.08.08,0,0,0,5.74,9.56Zm.53-.93s.08,0,.09,0a.07.07,0,1,0-.11-.07A.06.06,0,0,0,6.27,8.63Z"/><path class="cls-13" d="M6.37,9A.33.33,0,1,1,6,8.71.33.33,0,0,1,6.37,9Z"/><path class="cls-10" d="M14.44,9.29a1.2,1.2,0,1,1-1.2-1.2A1.2,1.2,0,0,1,14.44,9.29Z"/><polygon class="cls-10" points="14.47 9.25 14.45 9.08 14.05 9.12 14.43 8.99 14.38 8.83 14 8.95 14.35 8.75 14.26 8.6 13.91 8.8 14.21 8.54 14.1 8.41 13.8 8.68 14.03 8.35 13.89 8.25 13.65 8.57 13.82 8.21 13.66 8.14 13.5 8.51 13.58 8.11 13.41 8.07 13.33 8.47 13.33 8.07 13.16 8.07 13.16 8.47 13.07 8.07 12.9 8.11 12.99 8.5 12.82 8.14 12.67 8.21 12.83 8.57 12.6 8.25 12.45 8.35 12.69 8.68 12.39 8.41 12.28 8.54 12.57 8.8 12.23 8.6 12.14 8.75 12.49 8.95 12.11 8.83 12.05 8.99 12.44 9.12 12.04 9.08 12.02 9.25 12.42 9.29 12.02 9.33 12.04 9.5 12.44 9.46 12.05 9.59 12.11 9.75 12.49 9.63 12.14 9.83 12.23 9.98 12.57 9.78 12.28 10.05 12.39 10.17 12.69 9.9 12.45 10.23 12.6 10.33 12.83 10.01 12.67 10.37 12.82 10.44 12.99 10.08 12.9 10.47 13.07 10.51 13.16 10.11 13.16 10.51 13.33 10.51 13.33 10.11 13.41 10.51 13.58 10.47 13.5 10.08 13.66 10.44 13.82 10.37 13.66 10.01 13.89 10.33 14.03 10.23 13.8 9.9 14.09 10.17 14.21 10.05 13.91 9.78 14.26 9.98 14.35 9.83 14 9.63 14.38 9.75 14.43 9.59 14.05 9.46 14.45 9.5 14.47 9.33 14.07 9.29 14.47 9.25"/><path class="cls-11" d="M14,9.29a.79.79,0,0,1-.79.79h0a.79.79,0,0,1-.78-.79h0a.79.79,0,0,1,.78-.79h0a.79.79,0,0,1,.79.79Z"/><path class="cls-12" d="M13.9,9.29a.66.66,0,0,1-.66.65.65.65,0,1,1,0-1.3A.66.66,0,0,1,13.9,9.29Z"/><path class="cls-13" d="M13.3,8.85a.06.06,0,0,1-.06.05,0,0,0,0,1-.05-.05.06.06,0,0,1,.05-.06A.06.06,0,0,1,13.3,8.85Zm-.06.83a0,0,0,0,0-.05.05.06.06,0,0,0,.05.06.06.06,0,0,0,.06-.06A.06.06,0,0,0,13.24,9.68ZM13,8.86a.07.07,0,0,0,0,.08.08.08,0,0,0,.08,0,.06.06,0,1,0-.06-.1Zm.45.76a.07.07,0,0,0,0,.08.06.06,0,0,0,.08,0,0,0,0,0,0,0-.07A.05.05,0,0,0,13.44,9.62ZM12.81,9a.05.05,0,0,0,0,.08.06.06,0,0,0,.06-.1A.05.05,0,0,0,12.81,9Zm.77.44a.05.05,0,0,0,0,.08,0,0,0,0,0,.07,0,.05.05,0,0,0,0-.08A.06.06,0,0,0,13.58,9.48Zm-.83-.19a.06.06,0,0,0,.05.06.06.06,0,0,0,0-.12A.06.06,0,0,0,12.75,9.29Zm.88,0a.06.06,0,0,0,0,.06.06.06,0,1,0,0-.12A.06.06,0,0,0,13.63,9.29Zm-.82.25a.05.05,0,0,0,.08,0,.07.07,0,0,0,0-.08.08.08,0,0,0-.08,0A.05.05,0,0,0,12.81,9.54Zm.77-.44a.06.06,0,0,0,.07,0,.05.05,0,0,0,0-.08,0,0,0,0,0-.07,0A.05.05,0,0,0,13.58,9.1ZM13,9.72a.06.06,0,1,0,.06-.1.07.07,0,0,0-.08,0A.06.06,0,0,0,13,9.72ZM13.44,9a.06.06,0,0,0,.07,0,.05.05,0,0,0,0-.08.06.06,0,0,0-.08,0A.07.07,0,0,0,13.44,9Z"/><path class="cls-13" d="M13.51,9.29A.27.27,0,1,1,13.24,9,.27.27,0,0,1,13.51,9.29Z"/><polygon class="cls-2" points="6.94 4.7 7.29 4.7 7.91 5.44 7.91 5.86 7.11 7.08 6.37 6.97 6.29 6.06 6.94 4.7"/><polygon class="cls-2" points="10.99 6.01 9.38 6.15 8.69 6.67 8.69 7.32 9.16 7.32 10.99 6.01"/><path class="cls-14" d="M11.58,2h0l-.43-.44H8.41l-1,.64L6,6.08V7.15h.44l.86.55H9.23L12,5.77l.16-.37Zm.07,3.43L9.11,7.32H7.45l-.86-.55H6.42V6.14L7.75,2.46h0l.83-.56H11l.23.23L11.63,5Z"/><polygon class="cls-2" points="10.49 3.79 10.81 3.79 10.71 5.98 10.54 6.18 9.12 6.3 8.92 6.2 8.92 5.98 10.11 5.64 10.31 4.94 10.19 4.3 10.25 3.95 10.49 3.79"/><polygon class="cls-2" points="7.83 6.42 7.59 6.18 7.71 6.06 7.83 6.18 8.05 5.95 8.05 5.56 8.23 5.56 8.23 6.03 7.83 6.42"/><path class="cls-2" d="M8.23,5.56a.09.09,0,1,1-.09-.09A.09.09,0,0,1,8.23,5.56Z"/><path class="cls-2" d="M8.13,5.12a.11.11,0,0,1,0,.15h0a.11.11,0,0,1-.15,0l-.66-.66a.11.11,0,0,1,0-.15h0a.11.11,0,0,1,.15,0Z"/><path class="cls-2" d="M7.91,4.68a.17.17,0,0,1,0,.23l-.32.32a.17.17,0,0,1-.23,0h0a.17.17,0,0,1,0-.23l.32-.32a.17.17,0,0,1,.23,0Z"/><path class="cls-14" d="M7.44,4h0L7.17,3.9a.1.1,0,0,1,0-.11.1.1,0,0,1,.12-.06l.15.06.21-.56-.16-.06a.08.08,0,0,1-.05-.11A.09.09,0,0,1,7.5,3l.24.09a.08.08,0,0,1,0,.11l-.27.72a.1.1,0,0,1,0,0Z"/><path class="cls-14" d="M7.54,2.17a.35.35,0,0,1-.34.35V1.83A.34.34,0,0,1,7.54,2.17Z"/><rect class="cls-15" x="7.05" y="1.83" width="0.15" height="0.69"/><polygon class="cls-4" points="6.04 7.42 5.19 7.42 5.19 7.17 6.04 7.15 6.04 7.42"/><polygon class="cls-2" points="6.05 7.13 6.04 7.15 5.52 7.16 5.52 6.73 6.04 6.15 6.05 7.13"/><rect class="cls-6" x="7.71" y="9.21" width="2.21" height="0.14"/><rect class="cls-16" x="0.37" y="6.15" width="3.41" height="2.92"/><rect class="cls-17" x="0.58" y="4.02" width="3.03" height="2.14"/><path class="cls-18" d="M14.63,5.87l-.09-.1H12L9.51,7.51h0L12,5.77l.16-.37L11.58,2l-.43-.44H8.41l-.88.59a.33.33,0,0,0-.33-.28H7.05v.69H7.2a.28.28,0,0,0,.13,0L6,6.08v.07l-.31.35V3.37H6V3.18H5.73v-1h.09V2.1h.06V.87H6V.64H5.36V0h-1V6.15H3.61V4h-3V6.15H.37V9.07H0v.22l.06.07,3.73.12h.84l0,.11h0l0,.09,0,0,.1.18,0,0,.06.07,0,0L5,10.1l0,0,.07.06,0,0,.16.12,0,0,.08.05,0,0,.2.09v0l.09,0v0l.2,0v0h.1v0h.2v0h.1v0l.21,0v0l.09,0v0l.19-.09v0l.08-.05,0,0L7,10.17l0,0L7,10.08l0,0L7.21,10l0,0,.06-.07,0,0,.1-.18,0,0h4.73l0,.08h0a.43.43,0,0,0,0,.07l0,0,.09.15,0,0s0,0,.05.06l0,0,.11.12,0,0,.06,0,0,0,.14.1,0,0,.07,0v0l.16.07v0l.07,0v0l.17,0v0h.08v0h.17v0h.08v0l.17,0v0l.08,0v0l.16-.07v0l.06,0,0,0,.14-.1,0,0,.06,0,0,0,.12-.12,0,0,.05-.06,0,0,.08-.15,0,0,0-.07h0l0-.16h0a.24.24,0,0,0,0-.08h0l0-.14.2-.09h0l.07,0h0l.3-.15.1-.05V6.4ZM7,7.51l-.56-.36L7,7.51ZM8.61,2.09h2.25l.22.21.37,2.63V5.5L10.68,6h0L10.71,6l.11-2.19h-.33L10.25,4l-.06.35.12.64-.2.7L8.92,6V6.2l.2.1h.07l-.5.37v.46H7.56l-.34-.21.44-.67.17.17L8.23,6V5.57h0a.09.09,0,1,0-.18,0h0V6l-.22.23L7.75,6.1l.16-.24V5.44l-.24-.29.1-.1L8,5.27a.11.11,0,0,0,.15-.15L7.91,4.9a.16.16,0,1,0-.22-.22l-.22-.22a.11.11,0,1,0-.15.15l.22.21-.08.08-.17-.2H7.08L7.35,4l.06,0h.07a.1.1,0,0,0,0,0l.27-.72a.08.08,0,0,0,0-.11l-.07,0,.17-.46h0ZM6,7.15Zm-.52,0H5.36V3.37h.16ZM5.43,2.1v.07h.09v1H5.36V2.1Z"/></g></g></g></svg>