<svg xmlns="http://www.w3.org/2000/svg" viewBox="0 0 207.8 55.63"><defs><style>.cls-1{isolation:isolate;}.cls-2{fill:#82858e;}.cls-3{fill:#a7a9ac;}.cls-4{fill:#e5e0de;}.cls-5{fill:#767986;}.cls-6{fill:#7f818f;}.cls-7{fill:#feeee7;}.cls-8{fill:#c8c2cb;opacity:0.26;}.cls-16,.cls-23,.cls-8{mix-blend-mode:multiply;}.cls-9{fill:#6f737a;}.cls-10{fill:#9c8791;}.cls-11{fill:#d1d3d4;}.cls-12{fill:#e5b873;}.cls-13{fill:#808285;}.cls-14{fill:#ba9ba2;}.cls-15{fill:#f8a494;}.cls-16{fill:#ece1df;}.cls-17{fill:#dcc8c1;}.cls-18{fill:#5f6164;}.cls-19{fill:#e7ebfd;}.cls-20{fill:#bcbec0;}.cls-21{fill:#bfaec1;}.cls-22{fill:#ccc9d4;}.cls-23{fill:#c0bdc4;opacity:0.39;}.cls-24{fill:#ff5733;}</style></defs><title>Asset 1</title><g class="cls-1"><g id="Layer_2" data-name="Layer 2"><g id="Layer_1-2" data-name="Layer 1"><rect class="cls-2" x="135.1" y="41.53" width="6.94" height="2.82"/><rect class="cls-2" x="120.79" y="41.53" width="6.94" height="2.82"/><rect class="cls-3" x="177.79" y="40.05" width="17.88" height="10.1"/><rect class="cls-4" width="151.95" height="37.62"/><rect class="cls-5" x="156.68" y="42.16" width="4.47" height="7.51"/><polygon class="cls-6" points="65.29 37.62 66.56 37.62 80.42 37.62 80.42 41.53 66.56 41.53 66.56 44.81 28.17 44.81 28.17 37.62 65.29 37.62"/><path class="cls-7" d="M160.83,18.26V48.45h18.86v-.27A7.67,7.67,0,0,1,180,46a7.65,7.65,0,0,1,7.34-5.46A7.65,7.65,0,0,1,195,48.18v.27h9.81l1.27-.85L206,46l-.7-13.11s-7.75-3.6-22.34-5.5v0l-.42-1.19L180,19.37l-.1-.28-.32-.83Z"/><path class="cls-7" d="M160.84,18.26h19.88S173.6,5.71,160.84,5.71Z"/><path class="cls-8" d="M161.36,7.71V18.26h16.71C175.68,15,169.93,8.56,161.36,7.71Z"/><path class="cls-5" d="M194.7,46a7.67,7.67,0,0,1,.32,2.21v2.94h3.82L207,49.34V46Z"/><path class="cls-6" d="M174.94,46v5.15h4.75V48.18A7.67,7.67,0,0,1,180,46Z"/><rect class="cls-9" x="12.04" y="37.62" width="20.57" height="3.23"/><rect class="cls-10" x="158.2" y="18.26" width="4.61" height="20.52"/><rect class="cls-10" x="159.53" y="4.06" width="1.83" height="14.2"/><polygon class="cls-10" points="161.36 4.06 159.76 1.71 158.45 2.71 159.53 4.06 161.36 4.06"/><path class="cls-11" d="M177.33,42.48V46a2.06,2.06,0,0,1,1.56,2.17c0,.1,0,.2,0,.31v2.67h.79V48.18A7.67,7.67,0,0,1,180,46a7.65,7.65,0,0,1,7.34-5.46A7.67,7.67,0,0,1,194.7,46h10.07l-1.22-4s-6.1-2.48-16.16-2.48a6.17,6.17,0,0,0-.75,0l-.55.06a34.23,34.23,0,0,0-8.74,2.23Z"/><polygon class="cls-12" points="204.77 45.97 205.32 45.97 204.27 42.88 203.83 42.88 204.77 45.97"/><rect class="cls-13" x="160.77" y="42.48" width="16.57" height="8.64"/><rect class="cls-14" x="157.74" y="42.97" width="19.6" height="8.15"/><polygon class="cls-14" points="165.31 20.05 165.31 25.38 172.92 27.32 182.97 27.32 182.56 26.14 180.01 19.37 179.91 19.09 166.18 19.09 165.31 20.05"/><polygon class="cls-7" points="179.41 19.08 179.15 19.77 181.75 26.93 182.69 27.74 180.51 27.74 180.74 27 178.24 19.83 177 18.85 179.41 19.08"/><rect class="cls-7" x="171.65" y="18.85" width="1.14" height="8.89"/><rect class="cls-15" x="177.59" y="12.5" width="1.63" height="3.58"/><rect class="cls-12" x="179.85" y="31.07" width="2.71" height="1.11"/><path class="cls-3" d="M205.33,32.86l1.16,2.46L206.67,46s-.65.08-.65,0S205.33,32.86,205.33,32.86Z"/><rect class="cls-5" x="202.34" y="46" width="5.46" height="2.89"/><rect class="cls-16" x="161.93" y="49.2" width="13.54" height="0.95"/><rect class="cls-16" x="161.93" y="44.35" width="13.54" height="0.95"/><polygon class="cls-6" points="119.03 40.9 119.03 39.94 144.62 39.94 144.62 40.9 156.69 40.9 156.69 49.67 113.53 49.67 113.53 40.9 119.03 40.9"/><path class="cls-17" d="M178,26.74v-.27h0a.69.69,0,0,0,.7-.69V20.4a.7.7,0,0,0-.7-.7h0v-.85h-.43v.85h0a.7.7,0,0,0-.7.7v5.38a.7.7,0,0,0,.7.69h0V27l2.3,1v.55h.43v-.83Z"/><path class="cls-18" d="M180.31,48.57a7.06,7.06,0,1,0,7.06-7.06A7.06,7.06,0,0,0,180.31,48.57Z"/><path class="cls-19" d="M183.09,48.57a4.28,4.28,0,1,0,4.28-4.28A4.28,4.28,0,0,0,183.09,48.57Z"/><path class="cls-20" d="M187.37,45.3a.37.37,0,0,1,0,.74.37.37,0,1,1,0-.74ZM187,51.47a.37.37,0,0,0,.37.37.36.36,0,0,0,.37-.37.37.37,0,0,0-.37-.37A.38.38,0,0,0,187,51.47Zm1.5-5.6a.37.37,0,0,0,.14.51.37.37,0,0,0,.37-.64A.38.38,0,0,0,188.5,45.87Zm-2.9,5a.36.36,0,0,0,.14.5.35.35,0,0,0,.5-.13.38.38,0,0,0-.13-.51A.38.38,0,0,0,185.6,50.9Zm4.1-4.1a.37.37,0,1,0,.51.13A.38.38,0,0,0,189.7,46.8Zm-5,2.9a.37.37,0,0,0-.14.51.38.38,0,0,0,.51.13.37.37,0,0,0,.13-.5A.37.37,0,0,0,184.68,49.7Zm5.6-1.5a.37.37,0,0,0-.37.37.37.37,0,1,0,.73,0A.37.37,0,0,0,190.28,48.2Zm-5.81,0a.38.38,0,0,0-.37.37.37.37,0,0,0,.37.37.36.36,0,0,0,.37-.37A.37.37,0,0,0,184.47,48.2Zm5.6,1.5a.37.37,0,0,0-.37.64.38.38,0,0,0,.51-.13A.37.37,0,0,0,190.07,49.7Zm-5-2.9a.37.37,0,0,0-.5.13.37.37,0,1,0,.64.38A.37.37,0,0,0,185,46.8Zm4.1,4.1a.36.36,0,0,0-.5-.14.38.38,0,0,0-.14.51.37.37,0,0,0,.51.13A.36.36,0,0,0,189.14,50.9Zm-2.9-5a.37.37,0,0,0-.64.37.37.37,0,1,0,.64-.37Z"/><path class="cls-20" d="M185.59,48.57a1.78,1.78,0,1,0,1.78-1.78A1.78,1.78,0,0,0,185.59,48.57Z"/><polygon class="cls-21" points="157.43 20.3 158.19 20.3 158.19 21.09 157.43 21.09 157.43 35.95 158.19 35.95 158.19 36.74 157.43 36.74 156.69 36.74 156.69 20.3 157.43 20.3"/><polygon class="cls-21" points="163.57 20.3 162.81 20.3 162.81 21.09 163.57 21.09 163.57 35.95 162.81 35.95 162.81 36.74 163.57 36.74 164.31 36.74 164.31 20.3 163.57 20.3"/><rect class="cls-21" x="160.03" y="20.3" width="0.94" height="16.45"/><rect class="cls-8" y="34.86" width="151.95" height="2.76"/><path class="cls-22" d="M113.35,46a9,9,0,0,1,8.84-7.19h19A9,9,0,0,1,149.43,46a6.69,6.69,0,0,1,.15.93c0,.3,0,.61,0,.92v2.85h-1.46V47.82c0-.31,0-.62,0-.92a8.51,8.51,0,0,0-.18-.93,7.57,7.57,0,0,0-7.34-5.72h-18.4a7.45,7.45,0,0,0-3.45.84A7.57,7.57,0,0,0,114.85,46a7.94,7.94,0,0,0-.22,1.85v2.85h-1.47V47.82A9.36,9.36,0,0,1,113.35,46Z"/><path class="cls-23" d="M114.62,47.83v1.26h.14a2.74,2.74,0,0,1,.09-.39,7.48,7.48,0,0,1,3.09-4.4,7,7,0,0,1,5.62-2.79,6.94,6.94,0,0,1,4.3,1.47h7.22a6.94,6.94,0,0,1,4.3-1.47,7,7,0,0,1,5.77,3,7.59,7.59,0,0,1,2.78,4.19c0,.13,0,.26.08.39h.15V47.83a7,7,0,0,0-.06-.93,8.35,8.35,0,0,0-.17-.92,8,8,0,0,0-.45-1.25,7.54,7.54,0,0,0-6.89-4.47h-18.4a7.39,7.39,0,0,0-3.45.83,7.55,7.55,0,0,0-3.46,3.64,8,8,0,0,0-.43,1.25A7.38,7.38,0,0,0,114.62,47.83Z"/><path class="cls-18" d="M132.32,48.57a7.07,7.07,0,1,0,7.06-7.07A7.06,7.06,0,0,0,132.32,48.57Z"/><path class="cls-19" d="M135.54,48.57a3.85,3.85,0,1,0,3.84-3.84A3.84,3.84,0,0,0,135.54,48.57Z"/><path class="cls-20" d="M139.38,45.63a.34.34,0,0,1,.34.33.34.34,0,0,1-.67,0A.33.33,0,0,1,139.38,45.63Zm-.33,5.54a.34.34,0,1,0,.33-.33A.34.34,0,0,0,139.05,51.17Zm1.35-5a.33.33,0,0,0,.12.45.33.33,0,1,0,.33-.57A.32.32,0,0,0,140.4,46.15Zm-2.61,4.51a.33.33,0,1,0,.46-.12A.34.34,0,0,0,137.79,50.66ZM141.48,47a.33.33,0,0,0-.13.45.34.34,0,0,0,.46.12.33.33,0,0,0-.33-.57ZM137,49.58a.34.34,0,0,0-.12.46.33.33,0,0,0,.45.12.33.33,0,0,0,.13-.45A.34.34,0,0,0,137,49.58Zm5-1.34a.33.33,0,1,0,.33.33A.33.33,0,0,0,142,48.24Zm-5.21,0a.33.33,0,0,0-.33.33.33.33,0,0,0,.66,0A.33.33,0,0,0,136.78,48.24Zm5,1.34a.34.34,0,0,0-.46.13.33.33,0,0,0,.58.33A.34.34,0,0,0,141.81,49.58ZM137.29,47a.33.33,0,1,0,.12.45A.32.32,0,0,0,137.29,47ZM141,50.66a.34.34,0,0,0-.46-.12.33.33,0,1,0,.33.57A.34.34,0,0,0,141,50.66Zm-2.61-4.51a.32.32,0,0,0-.45-.12.33.33,0,0,0-.13.45.34.34,0,0,0,.46.12A.33.33,0,0,0,138.37,46.15Z"/><path class="cls-20" d="M137.79,48.57a1.6,1.6,0,1,0,1.59-1.6A1.6,1.6,0,0,0,137.79,48.57Z"/><path class="cls-18" d="M116.5,48.57a7.07,7.07,0,1,0,7.06-7.07A7.06,7.06,0,0,0,116.5,48.57Z"/><path class="cls-19" d="M119.72,48.57a3.85,3.85,0,1,0,3.84-3.84A3.84,3.84,0,0,0,119.72,48.57Z"/><path class="cls-20" d="M123.56,45.63a.34.34,0,0,1,.34.33.34.34,0,0,1-.67,0A.33.33,0,0,1,123.56,45.63Zm-.33,5.54a.34.34,0,1,0,.33-.33A.34.34,0,0,0,123.23,51.17Zm1.35-5a.33.33,0,0,0,.57.33.33.33,0,0,0-.57-.33ZM122,50.66a.33.33,0,1,0,.46-.12A.34.34,0,0,0,122,50.66ZM125.65,47a.33.33,0,1,0,.34.57.33.33,0,0,0,.12-.45A.34.34,0,0,0,125.65,47Zm-4.51,2.6A.34.34,0,0,0,121,50a.33.33,0,0,0,.45.12.32.32,0,0,0,.12-.45A.33.33,0,0,0,121.14,49.58Zm5-1.34a.33.33,0,1,0,.33.33A.33.33,0,0,0,126.17,48.24Zm-5.21,0a.33.33,0,0,0-.33.33.33.33,0,0,0,.66,0A.33.33,0,0,0,121,48.24Zm5,1.34a.34.34,0,1,0,.12.46A.34.34,0,0,0,126,49.58ZM121.47,47a.33.33,0,1,0,.12.45A.32.32,0,0,0,121.47,47Zm3.68,3.68a.33.33,0,1,0-.12.45A.32.32,0,0,0,125.15,50.66Zm-2.6-4.51a.32.32,0,0,0-.45-.12.33.33,0,0,0-.13.45.34.34,0,0,0,.46.12A.33.33,0,0,0,122.55,46.15Z"/><path class="cls-20" d="M122,48.57a1.6,1.6,0,1,0,1.59-1.6A1.6,1.6,0,0,0,122,48.57Z"/><rect class="cls-2" x="29.62" y="41.53" width="6.94" height="2.82"/><rect class="cls-2" x="15.3" y="41.53" width="6.94" height="2.82"/><polygon class="cls-6" points="13.54 40.9 13.54 39.94 39.13 39.94 39.13 40.9 42.73 40.9 42.73 49.67 8.04 49.67 8.04 40.9 13.54 40.9"/><path class="cls-22" d="M7.86,46a9,9,0,0,1,5.4-6.5,9,9,0,0,1,3.44-.69h19A9.06,9.06,0,0,1,44,46a8.64,8.64,0,0,1,.14.93,7,7,0,0,1,0,.92v2.85H42.68V47.82c0-.31,0-.62-.06-.92a6.66,6.66,0,0,0-.18-.93,7.56,7.56,0,0,0-7.34-5.72H16.7a7.38,7.38,0,0,0-3.44.84A7.56,7.56,0,0,0,9.36,46a7.94,7.94,0,0,0-.22,1.85v2.85H7.67V47.82A9.36,9.36,0,0,1,7.86,46Z"/><path class="cls-23" d="M9.14,47.83v1.26h.14a1.8,1.8,0,0,1,.08-.39,7.52,7.52,0,0,1,3.09-4.4,7.05,7.05,0,0,1,5.62-2.79A6.92,6.92,0,0,1,22.37,43h7.22a7,7,0,0,1,10.07,1.53,7.54,7.54,0,0,1,2.78,4.19c0,.13.05.26.08.39h.15V47.83a7,7,0,0,0-.06-.93,8.35,8.35,0,0,0-.17-.92A6.4,6.4,0,0,0,42,44.73a7.54,7.54,0,0,0-6.89-4.47H16.7a7.39,7.39,0,0,0-3.45.83,7.55,7.55,0,0,0-3.46,3.64A8,8,0,0,0,9.36,46,7.39,7.39,0,0,0,9.14,47.83Z"/><path class="cls-18" d="M26.84,48.57A7.06,7.06,0,1,0,33.9,41.5,7.06,7.06,0,0,0,26.84,48.57Z"/><path class="cls-19" d="M30.06,48.57a3.84,3.84,0,1,0,3.84-3.84A3.83,3.83,0,0,0,30.06,48.57Z"/><path class="cls-20" d="M33.9,45.63a.33.33,0,0,1,.33.33.33.33,0,0,1-.33.33.32.32,0,0,1-.33-.33A.33.33,0,0,1,33.9,45.63Zm-.33,5.54a.33.33,0,0,0,.33.34.34.34,0,0,0,0-.67A.33.33,0,0,0,33.57,51.17Zm1.34-5a.33.33,0,0,0,.58.33.33.33,0,0,0-.12-.45A.33.33,0,0,0,34.91,46.15Zm-2.6,4.51a.33.33,0,1,0,.45-.12A.33.33,0,0,0,32.31,50.66ZM36,47a.33.33,0,1,0,.45.12A.33.33,0,0,0,36,47Zm-4.51,2.6a.33.33,0,1,0,.33.58.33.33,0,0,0,.12-.45A.33.33,0,0,0,31.48,49.58Zm5-1.34a.33.33,0,1,0,.33.33A.33.33,0,0,0,36.5,48.24Zm-5.21,0a.33.33,0,0,0-.33.33.33.33,0,0,0,.33.33.33.33,0,0,0,0-.66Zm5,1.34a.33.33,0,1,0,.12.46A.34.34,0,0,0,36.32,49.58ZM31.81,47a.34.34,0,0,0-.46.12.33.33,0,1,0,.46-.12Zm3.68,3.68a.33.33,0,1,0-.12.45A.33.33,0,0,0,35.49,50.66Zm-2.61-4.51a.32.32,0,0,0-.45-.12.33.33,0,1,0,.45.12Z"/><path class="cls-20" d="M32.3,48.57A1.6,1.6,0,1,0,33.9,47,1.6,1.6,0,0,0,32.3,48.57Z"/><path class="cls-18" d="M11,48.57a7.07,7.07,0,1,0,7.07-7.07A7.07,7.07,0,0,0,11,48.57Z"/><path class="cls-19" d="M14.24,48.57a3.84,3.84,0,1,0,3.84-3.84A3.84,3.84,0,0,0,14.24,48.57Z"/><path class="cls-20" d="M18.08,45.63a.33.33,0,0,1,.33.33.33.33,0,0,1-.33.33.32.32,0,0,1-.33-.33A.33.33,0,0,1,18.08,45.63Zm-.33,5.54a.33.33,0,0,0,.33.34.34.34,0,0,0,0-.67A.33.33,0,0,0,17.75,51.17Zm1.34-5a.33.33,0,0,0,.58.33.33.33,0,0,0-.13-.45A.32.32,0,0,0,19.09,46.15Zm-2.6,4.51a.33.33,0,1,0,.45-.12A.33.33,0,0,0,16.49,50.66ZM20.17,47a.33.33,0,1,0,.45.12A.33.33,0,0,0,20.17,47Zm-4.51,2.6a.34.34,0,0,0-.13.46.33.33,0,0,0,.58-.33A.33.33,0,0,0,15.66,49.58Zm5-1.34a.33.33,0,0,0,0,.66.33.33,0,0,0,0-.66Zm-5.21,0a.33.33,0,0,0-.33.33.33.33,0,0,0,.33.33.33.33,0,0,0,.33-.33A.32.32,0,0,0,15.47,48.24Zm5,1.34a.33.33,0,1,0,.12.46A.34.34,0,0,0,20.5,49.58ZM16,47a.34.34,0,0,0-.46.12.33.33,0,0,0,.58.33A.34.34,0,0,0,16,47Zm3.68,3.68a.33.33,0,0,0-.58.33.33.33,0,0,0,.58-.33Zm-2.61-4.51a.32.32,0,0,0-.45-.12.33.33,0,1,0,.45.12Z"/><path class="cls-20" d="M16.48,48.57a1.6,1.6,0,1,0,1.6-1.6A1.6,1.6,0,0,0,16.48,48.57Z"/><rect class="cls-6" x="124.68" y="37.62" width="13.41" height="1.16"/><rect class="cls-6" x="55.14" y="37.62" width="53.73" height="5.35"/><path class="cls-4" d="M46.89,39.23v7.7h59.55v-7.7Zm2.77,2.15H104v3.4H49.66Z"/><rect class="cls-7" width="151.95" height="1.73"/><path class="cls-16" d="M4.92,32.66H2.55V3.78H4.92Zm4-28.88H6.56V32.66H8.92Zm4,0H10.56V32.66h2.37Zm4,0H14.57V32.66h2.36Zm4,0H18.57V32.66h2.36Zm4,0H22.57V32.66h2.37Zm4,0H26.58V32.66h2.36Zm4,0H30.58V32.66H33Zm4,0H34.59V32.66H37Zm4,0H38.59V32.66H41Zm4,0H42.6V32.66H45Zm4,0H46.6V32.66H49Zm4,0H50.6V32.66H53Zm4,0H54.61V32.66H57Zm4,0H58.61V32.66H61Zm4,0H62.62V32.66H65Zm4,0H66.62V32.66H69Zm4,0H70.63V32.66H73Zm4,0H74.63V32.66H77Zm4,0H78.63V32.66H81Zm4,0H82.64V32.66H85Zm4,0H86.64V32.66H89Zm4,0H90.65V32.66H93Zm4,0H94.65V32.66H97Zm4,0H98.66V32.66H101Zm4,0h-2.37V32.66H105Zm4,0h-2.36V32.66H109Zm4,0h-2.36V32.66H113Zm4,0h-2.37V32.66H117Zm4,0h-2.36V32.66H121Zm4,0h-2.37V32.66h2.37Zm4,0h-2.36V32.66h2.36Zm4,0h-2.37V32.66h2.37Zm4,0H134.7V32.66h2.36Zm4,0H138.7V32.66h2.36Zm4,0H142.7V32.66h2.37Zm4,0h-2.36V32.66h2.36Z"/><path class="cls-24" d="M69.87,22V20.65a5.57,5.57,0,1,0-5.57-5.57v5.54l4.59,0V22L63,22V15.08A6.92,6.92,0,1,1,69.87,22Z"/><path class="cls-24" d="M67.39,29H63V23H64.3V27.6H66V15.13A3.83,3.83,0,1,1,69.87,19V17.61a2.48,2.48,0,1,0-2.48-2.48Z"/><path class="cls-24" d="M75.55,19.24c-1.73-1.68-4.64-1.66-4.87-1.66h-.81v1.36h.84s2.55,0,3.89,1.28a2.87,2.87,0,0,1,.84,2.15V27.6h-2V23.18a2.31,2.31,0,0,0-.68-1.7,3.71,3.71,0,0,0-2.49-.86h-.43V22h.45a2.47,2.47,0,0,1,1.53.48,1,1,0,0,1,.27.73V29h4.66v-6.6A4.22,4.22,0,0,0,75.55,19.24Z"/><path d="M94.14,16.44a5,5,0,0,1-.21,1.46,5.08,5.08,0,0,1-.59,1.27,4.48,4.48,0,0,1-.9,1,4.56,4.56,0,0,1-1.17.77l2.87,4.46H91.27L88.72,21.5H87.08l1-2.41h1A2.56,2.56,0,0,0,91,18.31a2.76,2.76,0,0,0,.56-.87,2.6,2.6,0,0,0,0-2A2.53,2.53,0,0,0,91,14.6a2.56,2.56,0,0,0-1.87-.78H86.25V25.45h-2.4v-14H89.1a4.77,4.77,0,0,1,2,.4,5.2,5.2,0,0,1,1.59,1.08,5,5,0,0,1,1.08,1.6A4.77,4.77,0,0,1,94.14,16.44Z"/><path d="M105.11,15.4v10H102.7v-5a2.89,2.89,0,0,0-4-2.66,2.58,2.58,0,0,0-.93.62,2.86,2.86,0,0,0,0,4.07,2.48,2.48,0,0,0,.93.63,3,3,0,0,0,1.11.21,2.85,2.85,0,0,0,1.08-.2l.87,2.15a4.86,4.86,0,0,1-2.15.46A4.93,4.93,0,0,1,96,24.16a5.21,5.21,0,0,1-1.06-1.68,5.75,5.75,0,0,1,0-4.11A5.26,5.26,0,0,1,96,16.68a4.88,4.88,0,0,1,1.62-1.13,5,5,0,0,1,2-.41,4.75,4.75,0,0,1,1.75.3,5.3,5.3,0,0,1,1.34.76v-.8Z"/><path d="M114.65,17.06l-4.83,6h4.59v2.41h-8.3V23.83l4.83-6h-4.41V15.42H113v0h1.7Z"/><path d="M119.33,15.42a4.18,4.18,0,0,1,1.62-.3v2.41a2.8,2.8,0,0,0-2,.84,2.88,2.88,0,0,0-.84,2v5h-2.41v-10h2.41v.78A5,5,0,0,1,119.33,15.42Z"/><path d="M126.26,15.14a5.25,5.25,0,0,1,4.88,3.23,5.24,5.24,0,0,1,0,4.11A5.23,5.23,0,0,1,130,24.16a5.43,5.43,0,0,1-1.68,1.14,5.41,5.41,0,0,1-4.13,0,5.36,5.36,0,0,1-1.69-1.14,5.23,5.23,0,0,1-1.13-1.68,5.36,5.36,0,0,1,0-4.11,5.28,5.28,0,0,1,1.13-1.69,5.17,5.17,0,0,1,1.69-1.13A5.26,5.26,0,0,1,126.26,15.14Zm0,2.41a2.78,2.78,0,0,0-2,.84,2.86,2.86,0,0,0,0,4.07,2.48,2.48,0,0,0,.93.63,3,3,0,0,0,1.11.21,2.87,2.87,0,0,0,1.1-.21,2.82,2.82,0,0,0,1-.63,2.89,2.89,0,0,0,0-4.07A2.88,2.88,0,0,0,126.26,17.55Z"/><path d="M137.65,15.14a5.25,5.25,0,0,1,3.75,1.54,5.47,5.47,0,0,1,1.14,1.69,5.36,5.36,0,0,1,0,4.11,5.4,5.4,0,0,1-2.82,2.82,5.41,5.41,0,0,1-4.13,0,5.47,5.47,0,0,1-1.69-1.14,5.28,5.28,0,0,1,3.75-9Zm0,2.41a2.87,2.87,0,0,0-2,4.91,2.56,2.56,0,0,0,.93.63,3,3,0,0,0,2.22,0,2.88,2.88,0,0,0,.94-.63,2.89,2.89,0,0,0,0-4.07A2.88,2.88,0,0,0,137.65,17.55Z"/></g></g></g></svg>