<?xml version="1.0" encoding="utf-8"?>
<!-- Generator: Adobe Illustrator 23.0.4, SVG Export Plug-In . SVG Version: 6.00 Build 0)  -->
<svg version="1.1" xmlns="http://www.w3.org/2000/svg" xmlns:xlink="http://www.w3.org/1999/xlink" x="0px" y="0px"
	 viewBox="0 0 600 600" style="enable-background:new 0 0 600 600;" xml:space="preserve">
<style type="text/css">
	.st0{display:none;}
	.st1{display:inline;fill:#69BD45;}
	.st2{fill:#038971;}
	.st3{fill:#C7C8CA;}
	.st4{fill:none;stroke:#FFFFFF;stroke-width:0.25;stroke-miterlimit:10;}
	.st5{fill:#FFFFFF;}
	.st6{font-family:'MyriadPro-Regular';}
	.st7{font-size:12.5705px;}
	.st8{font-size:11.523px;}
	.st9{font-size:50.2822px;}
	.st10{font-size:16.7607px;}
	.st11{fill:none;stroke:#000000;stroke-width:0.25;stroke-miterlimit:10;}
	.st12{font-size:26.1755px;}
	.st13{clip-path:url(#SVGID_2_);fill:#068971;}
	.st14{clip-path:url(#SVGID_2_);}
	.st15{font-size:14.9046px;}
	.st16{font-size:67.0705px;}
	.st17{font-size:22.3568px;}
</style>
<g id="background" class="st0">
	<rect class="st1" width="600" height="600"/>
</g>
<g id="spine">
	<rect x="195.5" y="168.9" class="st2" width="167.6" height="377.1"/>
</g>
<g id="pages">
	<polygon class="st3" points="253.7,23.3 415.5,23.3 362,169.1 196.5,168.9 	"/>
</g>
<g id="pageOverstep4">
	<path class="st4" d="M211.7,184.8"/>
	<line class="st4" x1="200.8" y1="168.9" x2="258.4" y2="22.3"/>
	<line class="st4" x1="206.1" y1="168.9" x2="263.7" y2="22.3"/>
	<line class="st4" x1="211.3" y1="168.9" x2="268.9" y2="22.3"/>
	<line class="st4" x1="216.6" y1="168.9" x2="274.1" y2="22.3"/>
	<line class="st4" x1="221.8" y1="168.9" x2="279.4" y2="22.3"/>
	<line class="st4" x1="227" y1="168.9" x2="284.6" y2="22.3"/>
	<line class="st4" x1="232.3" y1="168.9" x2="289.8" y2="22.3"/>
	<line class="st4" x1="237.5" y1="168.9" x2="295.1" y2="22.3"/>
	<line class="st4" x1="242.7" y1="168.9" x2="300.3" y2="22.3"/>
	<line class="st4" x1="248" y1="168.9" x2="305.6" y2="22.3"/>
	<line class="st4" x1="253.2" y1="168.9" x2="310.8" y2="22.3"/>
	<line class="st4" x1="258.4" y1="168.9" x2="316" y2="22.3"/>
	<line class="st4" x1="263.7" y1="168.9" x2="321.3" y2="22.3"/>
	<line class="st4" x1="268.9" y1="168.9" x2="326.5" y2="22.3"/>
	<line class="st4" x1="274.1" y1="168.9" x2="331.7" y2="22.3"/>
	<line class="st4" x1="279.4" y1="168.9" x2="337" y2="22.3"/>
	<line class="st4" x1="284.6" y1="168.9" x2="342.2" y2="22.3"/>
	<line class="st4" x1="289.8" y1="168.9" x2="347.4" y2="22.3"/>
	<line class="st4" x1="295.1" y1="168.9" x2="352.7" y2="22.3"/>
	<line class="st4" x1="300.3" y1="168.9" x2="357.9" y2="22.3"/>
	<line class="st4" x1="305.6" y1="168.9" x2="363.1" y2="22.3"/>
	<line class="st4" x1="310.8" y1="168.9" x2="368.4" y2="22.3"/>
	<line class="st4" x1="316" y1="168.9" x2="373.6" y2="22.3"/>
	<line class="st4" x1="321.3" y1="168.9" x2="378.8" y2="22.3"/>
	<line class="st4" x1="326.5" y1="168.9" x2="384.1" y2="22.3"/>
	<line class="st4" x1="331.7" y1="168.9" x2="389.3" y2="22.3"/>
	<line class="st4" x1="337" y1="168.9" x2="394.5" y2="22.3"/>
	<line class="st4" x1="342.2" y1="168.9" x2="399.8" y2="22.3"/>
	<line class="st4" x1="347.4" y1="168.9" x2="405" y2="22.3"/>
	<line class="st4" x1="352.7" y1="168.9" x2="410.3" y2="22.3"/>
	<line class="st4" x1="357.9" y1="168.9" x2="415.5" y2="22.3"/>
	<path class="st4" d="M410.3,22.3"/>
	<path class="st4" d="M352.7,168.9"/>
	<path class="st4" d="M357.9,168.9"/>
	<path class="st4" d="M363.1,168.9"/>
	<path class="st4" d="M368.4,168.9"/>
</g>
<g id="upperBlock">
	<rect x="195.5" y="168.9" width="167.6" height="85.5"/>
</g>
<g id="innerBlock">
	<rect x="206" y="182.8" class="st5" width="146.7" height="41.9"/>
</g>
<g id="sixthEdition">
	<text transform="matrix(1 0 0 1 246.2661 238.0752)" class="st5 st6 st7">Sixth Edition</text>
	<line class="st4" x1="245.8" y1="241.1" x2="312.8" y2="241.1"/>
</g>
<g id="covers...">
	<text transform="matrix(1 0 0 1 207.8413 251.8672)" class="st5 st6 st8">Covers EMCAScript5 &amp; HTML5</text>
</g>
<g id="Javascript">
	<text transform="matrix(0 1 -1 0 293.4253 266.583)" class="st5 st6 st9">JavaScript</text>
</g>
<g id="The_Definitive_Guide">
	<text transform="matrix(0 1 -1 0 264.5376 267.6201)" class="st5 st6 st10">The Definitive Guide</text>
</g>
<g id="bottomBlock">
	<rect x="195.5" y="504.1" width="167.6" height="41.9"/>
</g>
<g id="sideViewSpine">
	<line class="st11" x1="195.6" y1="168.9" x2="253.2" y2="22.3"/>
	<line class="st11" x1="362.5" y1="169.1" x2="414.8" y2="22.5"/>
</g>
<g id="pageOverstep1">
</g>
<g id="pageOverstep2">
</g>
<g id="pageOverstep3">
</g>
<g id="O_Reilly">
	<text transform="matrix(1 0 0 1 235.9204 532.5898)" class="st5 st6 st12">O Reilly</text>
</g>
<g id="sideOutline">
	<polygon class="st5" points="363.1,545.8 415.5,407.1 415.5,22.3 363.1,169.1 	"/>
</g>
<g id="rightSideOverlay">
	<polygon class="st5" points="415.5,23.3 415.5,396 363.1,545.8 362,169.1 	"/>
</g>
<g id="right_x5F_side">
	<g>
		<g>
			<defs>
				<polygon id="SVGID_1_" points="362.4,175.5 414.8,22.8 411,392.6 355.9,548.1 				"/>
			</defs>
			<clipPath id="SVGID_2_">
				<use xlink:href="#SVGID_1_"  style="overflow:visible;"/>
			</clipPath>
			<polygon class="st13" points="365,178.9 414.6,39 414.8,27.9 365.2,167.8 			"/>
			<polygon class="st14" points="401,66.7 415.6,131.8 416.5,76 409.2,43.4 			"/>
			<g class="st14">
				<text transform="matrix(0.1478 -0.4172 -1.745000e-02 0.9999 378.2268 153.103)"><tspan x="0" y="0" class="st6 st15">A</tspan><tspan x="8.9" y="0" class="st6 st15">c</tspan><tspan x="15.8" y="0" class="st6 st15">ti</tspan><tspan x="24.2" y="0" class="st6 st15">v</tspan><tspan x="31.4" y="0" class="st6 st15">a</tspan><tspan x="38.5" y="0" class="st6 st15">t</tspan><tspan x="43.3" y="0" class="st6 st15">e </tspan><tspan x="54" y="0" class="st6 st15">y</tspan><tspan x="60.9" y="0" class="st6 st15">our</tspan><tspan x="82.1" y="0" class="st6 st15"> </tspan><tspan x="84.7" y="0" class="st6 st15">W</tspan><tspan x="96.9" y="0" class="st6 st15">eb </tspan><tspan x="116" y="0" class="st6 st15">P</tspan><tspan x="123.5" y="0" class="st6 st15">ages</tspan></text>
			</g>
			<polygon class="st13" points="409.9,307.3 360.3,447.2 361.6,372.7 411.2,232.8 			"/>
			<g class="st14">
				<text transform="matrix(0.1478 -0.4172 -1.745000e-02 0.9999 364.9372 417.6711)"><tspan x="0" y="0" class="st5 st6 st16">J</tspan><tspan x="24.8" y="0" class="st5 st6 st16">a</tspan><tspan x="56.7" y="0" class="st5 st6 st16">v</tspan><tspan x="88.7" y="0" class="st5 st6 st16">asc</tspan><tspan x="177.7" y="0" class="st5 st6 st16">r</tspan><tspan x="199.9" y="0" class="st5 st6 st16">ipt</tspan></text>
			</g>
			<path class="st14" d="M386.7,381.3l-0.6,1.6l0-1.4l1.4-3.9l0,1.4l-0.6,1.6l-0.2,11.2l-0.2,0.7L386.7,381.3z M387.8,376.5l0.2-0.7
				l-0.1,5.6l0,0c0-0.6,0.1-1.2,0.2-1.6c0.1-0.5,0.2-0.9,0.3-1.2c0.2-0.5,0.5-0.6,0.4,2.5l-0.1,5.4l-0.2,0.7l0.1-5.2
				c0-1.5,0-2.5-0.3-1.8c-0.2,0.4-0.3,1.5-0.4,2.6c0,0.3,0,0.5,0,0.8l-0.1,5.4l-0.2,0.7L387.8,376.5z M389.3,380.8
				c0,2.2,0.2,2.5,0.4,1.8c0.2-0.5,0.3-1,0.4-1.5l0,1.1c-0.1,0.5-0.2,1.2-0.5,1.8c-0.4,1.2-0.6,0-0.6-2.7s0.3-5.5,0.7-6.6
				c0.4-1.2,0.5,1,0.5,2.7c0,0.3,0,0.6,0,0.8L389.3,380.8z M390,377.6c0-1.1,0-2.5-0.3-1.7c-0.2,0.7-0.4,2.5-0.4,3.7L390,377.6z
				 M391.2,367.4c0.1-0.6,0.3-1.2,0.5-1.7c0.3-1,0.6-1.1,0.7-0.6c0.1,0.6,0.2,1.7,0.2,3.8c0,2.1-0.2,4-0.4,5.6
				c-0.2,1.7-0.5,3.1-0.9,4.1c-0.2,0.5-0.3,0.8-0.4,1.1L391.2,367.4z M391.3,377.9c0.1-0.1,0.1-0.3,0.2-0.6c0.5-1.4,0.8-4.2,0.9-7.6
				c0.1-3-0.2-4.2-0.7-2.7c-0.1,0.4-0.2,0.7-0.3,1L391.3,377.9z M393.1,370c0,2.2,0.2,2.5,0.4,1.8c0.2-0.5,0.3-1,0.4-1.5l0,1.1
				c-0.1,0.5-0.2,1.2-0.5,1.8c-0.4,1.2-0.6,0-0.6-2.7s0.3-5.5,0.7-6.6c0.4-1.2,0.5,1,0.5,2.7c0,0.3,0,0.6,0,0.8L393.1,370z
				 M393.8,366.9c0-1.1,0-2.5-0.3-1.7c-0.2,0.7-0.4,2.5-0.4,3.7L393.8,366.9z M394.3,370.7l0.1-7.8l-0.2,0.5l0-1.2l0.2-0.5l0-0.5
				c0-2.4,0.3-4.5,0.7-5.6c0.1-0.4,0.3-0.5,0.3-0.4l-0.1,1.4c-0.1-0.1-0.2-0.1-0.3,0.3c-0.3,0.7-0.4,2.1-0.4,3.6l0,0.4l0.8-2.2
				l-0.2,9l-0.2,0.7l0.1-7.8l-0.5,1.5l-0.1,7.8L394.3,370.7z M395.8,360.1c0-0.9,0-1.7,0-2.4l0.2-0.6l0,1.5l0,0
				c0.1-1,0.3-2.3,0.5-2.9c0.2-0.5,0.5-0.6,0.4,2.5l-0.1,5.4l-0.2,0.7l0.1-5.2c0-1.5,0-2.4-0.3-1.8c-0.2,0.5-0.3,1.6-0.4,2.6
				c0,0.2,0,0.5,0,0.8l-0.1,5.4l-0.2,0.7L395.8,360.1z M397.7,350c0,0.6-0.1,1.2-0.2,1.4c-0.1,0.2-0.1,0-0.1-0.6
				c0-0.6,0.1-1.2,0.2-1.5C397.6,349.2,397.7,349.5,397.7,350z M397.2,362.4l0.2-9l0.2-0.7l-0.2,9L397.2,362.4z M398.4,348.1l0,2.6
				l0.3-1l0,1.2l-0.3,1l-0.1,4.9c0,1.1,0,1.6,0.2,1.2c0.1-0.2,0.1-0.4,0.1-0.5l0,1.2c0,0.3-0.1,0.6-0.2,0.8c-0.1,0.3-0.2,0.3-0.2,0
				c-0.1-0.3-0.1-1-0.1-2.1l0.1-4.9l-0.2,0.6l0-1.2l0.2-0.6l0-2.2L398.4,348.1z M399.2,345.7c0,0.6-0.1,1.2-0.2,1.4
				c-0.1,0.2-0.1,0-0.1-0.6c0-0.6,0.1-1.2,0.2-1.5C399.2,344.8,399.3,345.1,399.2,345.7z M398.8,358l0.2-9l0.2-0.7l-0.2,9L398.8,358
				z M399.7,346.9l0.2,4.3c0,0.7,0.1,1.3,0.1,2l0,0c0-0.8,0.1-1.7,0.2-2.6l0.3-5.8l0.3-0.7l-0.7,10.5l-0.2,0.7l-0.3-7.6L399.7,346.9
				z M400.9,347.9c0,2.2,0.2,2.5,0.4,1.8c0.2-0.5,0.3-1,0.4-1.5l0,1.1c-0.1,0.5-0.2,1.2-0.5,1.8c-0.4,1.2-0.6,0-0.6-2.7
				s0.3-5.5,0.7-6.6c0.4-1.2,0.5,1,0.5,2.7c0,0.3,0,0.6,0,0.8L400.9,347.9z M401.7,344.7c0-1.1,0-2.5-0.3-1.7
				c-0.2,0.7-0.4,2.5-0.4,3.7L401.7,344.7z M404.1,342.4c-0.1,0.6-0.3,1.6-0.6,2.3c-0.3,0.8-0.5,1-0.7,0.3c-0.1-0.6-0.2-2-0.2-3.9
				c0.1-3.8,0.5-7.6,1.1-9.3c0.2-0.6,0.4-0.8,0.5-0.7l-0.1,1.5c-0.1,0-0.2,0.1-0.4,0.6c-0.5,1.3-0.8,4-0.8,7.2
				c-0.1,3.2,0.2,4.3,0.6,3c0.2-0.4,0.3-0.9,0.3-1.2l0.1-3.7l-0.4,1.1l0-1.3l0.6-1.7L404.1,342.4z M405.6,336.3c0,0.9,0,1.7,0,2.4
				l-0.2,0.6l0-1.4l0,0c-0.1,0.9-0.2,2.3-0.5,2.9c-0.2,0.6-0.4,0.5-0.4-2.7l0.1-5.3l0.2-0.7l-0.1,5c0,1.7,0,2.7,0.2,2
				c0.2-0.5,0.3-1.5,0.3-2.4c0-0.3,0-0.6,0-0.9l0.1-5.5l0.2-0.7L405.6,336.3z M406.4,325.3c0,0.6-0.1,1.2-0.2,1.4
				c-0.1,0.2-0.1,0-0.1-0.6c0-0.6,0.1-1.2,0.2-1.5C406.4,324.5,406.5,324.8,406.4,325.3z M406,337.7l0.2-9l0.2-0.7l-0.2,9L406,337.7
				z M408,319.3l-0.2,10.9c0,0.8,0,1.7,0,2.3l-0.2,0.6l0-1.5l0,0c-0.1,1.2-0.3,2.4-0.5,3.1c-0.3,0.9-0.5-0.2-0.5-3
				c0-3,0.4-5.6,0.7-6.5c0.2-0.6,0.3-0.3,0.4,0.2l0,0l0.1-5.4L408,319.3z M407.6,327.9c0-0.2,0-0.5,0-0.7c0-0.9-0.1-1.4-0.3-0.9
				c-0.3,0.7-0.4,2.6-0.5,4.6c0,1.8,0.1,3,0.3,2.2c0.2-0.5,0.3-1.6,0.4-3c0-0.2,0-0.5,0-0.7L407.6,327.9z M408.4,326.9
				c0,2.2,0.2,2.5,0.4,1.8c0.2-0.5,0.3-1,0.4-1.5l0,1.1c-0.1,0.5-0.2,1.2-0.5,1.8c-0.4,1.2-0.6,0-0.6-2.7c0-2.7,0.3-5.5,0.7-6.6
				c0.4-1.2,0.5,1,0.5,2.7c0,0.3,0,0.6,0,0.8L408.4,326.9z M409.1,323.7c0-1.1,0-2.5-0.3-1.7c-0.2,0.7-0.4,2.5-0.4,3.7L409.1,323.7z
				"/>
			<g class="st14">
				<text transform="matrix(0.1478 -0.4172 -1.745000e-02 0.9999 361.5028 503.469)"><tspan x="0" y="0" class="st6 st17">O</tspan><tspan x="15.6" y="0" class="st6 st17">’REIL</tspan><tspan x="59.1" y="0" class="st6 st17">L</tspan><tspan x="67.8" y="0" class="st6 st17">Y</tspan></text>
			</g>
			<g class="st14">
				<text transform="matrix(0.1478 -0.4172 -1.745000e-02 0.9999 394.4617 409.3696)"><tspan x="0" y="0" class="st6 st15">D</tspan><tspan x="9.9" y="0" class="st6 st15">a</tspan><tspan x="17" y="0" class="st6 st15">vid </tspan><tspan x="39.2" y="0" class="st6 st15">F</tspan><tspan x="46.2" y="0" class="st6 st15">lanagan</tspan></text>
			</g>
		</g>
	</g>
</g>
</svg>
