<?xml version="1.0" encoding="utf-8"?>
<!-- Generator: Adobe Illustrator 18.0.0, SVG Export Plug-In . SVG Version: 6.00 Build 0)  -->
<!DOCTYPE svg PUBLIC "-//W3C//DTD SVG 1.1//EN" "http://www.w3.org/Graphics/SVG/1.1/DTD/svg11.dtd">
<svg version="1.1" xmlns="http://www.w3.org/2000/svg" xmlns:xlink="http://www.w3.org/1999/xlink" x="0px" y="0px"
	 viewBox="0 0 410 200" enable-background="new 0 0 410 200" xml:space="preserve">
<g id="background">
</g>
<g id="wire_x5F_lace_x5F_LR">
</g>
<g id="wire_x5F_laceRL">
</g>
<g id="fence_x5F_sides">
	<rect x="-0.5" fill="#313D42" width="10" height="200"/>
	<rect x="399.5" fill="#313D42" width="10" height="200"/>
</g>
<g id="fence_x5F_container">
	<g>
		<defs>
			<rect id="SVGID_1_" x="5" width="400" height="200"/>
		</defs>
		<clipPath id="SVGID_2_">
			<use xlink:href="#SVGID_1_"  overflow="visible"/>
		</clipPath>
		
			<line clip-path="url(#SVGID_2_)" fill="none" stroke="#7B7881" stroke-width="0.5" stroke-miterlimit="10" x1="5" y1="0" x2="405" y2="200"/>
		
			<line clip-path="url(#SVGID_2_)" fill="none" stroke="#7B7881" stroke-width="0.5" stroke-miterlimit="10" x1="15" y1="-10" x2="415" y2="190"/>
		
			<line clip-path="url(#SVGID_2_)" fill="none" stroke="#7B7881" stroke-width="0.5" stroke-miterlimit="10" x1="25" y1="-20" x2="425" y2="180"/>
		
			<line clip-path="url(#SVGID_2_)" fill="none" stroke="#7B7881" stroke-width="0.5" stroke-miterlimit="10" x1="35" y1="-30" x2="435" y2="170"/>
		
			<line clip-path="url(#SVGID_2_)" fill="none" stroke="#7B7881" stroke-width="0.5" stroke-miterlimit="10" x1="45" y1="-40" x2="445" y2="160"/>
		
			<line clip-path="url(#SVGID_2_)" fill="none" stroke="#7B7881" stroke-width="0.5" stroke-miterlimit="10" x1="55" y1="-50" x2="455" y2="150"/>
		
			<line clip-path="url(#SVGID_2_)" fill="none" stroke="#7B7881" stroke-width="0.5" stroke-miterlimit="10" x1="65" y1="-60" x2="465" y2="140"/>
		
			<line clip-path="url(#SVGID_2_)" fill="none" stroke="#7B7881" stroke-width="0.5" stroke-miterlimit="10" x1="75" y1="-70" x2="475" y2="130"/>
		
			<line clip-path="url(#SVGID_2_)" fill="none" stroke="#7B7881" stroke-width="0.5" stroke-miterlimit="10" x1="85" y1="-80" x2="485" y2="120"/>
		
			<line clip-path="url(#SVGID_2_)" fill="none" stroke="#7B7881" stroke-width="0.5" stroke-miterlimit="10" x1="95" y1="-90" x2="495" y2="110"/>
		
			<line clip-path="url(#SVGID_2_)" fill="none" stroke="#7B7881" stroke-width="0.5" stroke-miterlimit="10" x1="105" y1="-100" x2="505" y2="100"/>
		
			<line clip-path="url(#SVGID_2_)" fill="none" stroke="#7B7881" stroke-width="0.5" stroke-miterlimit="10" x1="115" y1="-110" x2="515" y2="90"/>
		
			<line clip-path="url(#SVGID_2_)" fill="none" stroke="#7B7881" stroke-width="0.5" stroke-miterlimit="10" x1="125" y1="-120" x2="525" y2="80"/>
		
			<line clip-path="url(#SVGID_2_)" fill="none" stroke="#7B7881" stroke-width="0.5" stroke-miterlimit="10" x1="126" y1="-131" x2="526" y2="69"/>
		
			<line clip-path="url(#SVGID_2_)" fill="none" stroke="#7B7881" stroke-width="0.5" stroke-miterlimit="10" x1="-5" y1="10" x2="395" y2="210"/>
		
			<line clip-path="url(#SVGID_2_)" fill="none" stroke="#7B7881" stroke-width="0.5" stroke-miterlimit="10" x1="-15" y1="20" x2="385" y2="220"/>
		
			<line clip-path="url(#SVGID_2_)" fill="none" stroke="#7B7881" stroke-width="0.5" stroke-miterlimit="10" x1="-25" y1="30" x2="375" y2="230"/>
		
			<line clip-path="url(#SVGID_2_)" fill="none" stroke="#7B7881" stroke-width="0.5" stroke-miterlimit="10" x1="-35" y1="40" x2="365" y2="240"/>
		
			<line clip-path="url(#SVGID_2_)" fill="none" stroke="#7B7881" stroke-width="0.5" stroke-miterlimit="10" x1="-45" y1="50" x2="355" y2="250"/>
		
			<line clip-path="url(#SVGID_2_)" fill="none" stroke="#7B7881" stroke-width="0.5" stroke-miterlimit="10" x1="-55" y1="60" x2="345" y2="260"/>
		
			<line clip-path="url(#SVGID_2_)" fill="none" stroke="#7B7881" stroke-width="0.5" stroke-miterlimit="10" x1="-65" y1="70" x2="335" y2="270"/>
		
			<line clip-path="url(#SVGID_2_)" fill="none" stroke="#7B7881" stroke-width="0.5" stroke-miterlimit="10" x1="-75" y1="80" x2="325" y2="280"/>
		
			<line clip-path="url(#SVGID_2_)" fill="none" stroke="#7B7881" stroke-width="0.5" stroke-miterlimit="10" x1="-85" y1="90" x2="315" y2="290"/>
		
			<line clip-path="url(#SVGID_2_)" fill="none" stroke="#7B7881" stroke-width="0.5" stroke-miterlimit="10" x1="-95" y1="100" x2="305" y2="300"/>
		
			<line clip-path="url(#SVGID_2_)" fill="none" stroke="#7B7881" stroke-width="0.5" stroke-miterlimit="10" x1="-105" y1="110" x2="295" y2="310"/>
		
			<line clip-path="url(#SVGID_2_)" fill="none" stroke="#7B7881" stroke-width="0.5" stroke-miterlimit="10" x1="-115" y1="120" x2="285" y2="320"/>
		
			<line clip-path="url(#SVGID_2_)" fill="none" stroke="#7B7881" stroke-width="0.5" stroke-miterlimit="10" x1="-138" y1="120" x2="262" y2="320"/>
		
			<line clip-path="url(#SVGID_2_)" fill="none" stroke="#7B7881" stroke-width="0.5" stroke-miterlimit="10" x1="5" y1="200" x2="405" y2="0"/>
		
			<line clip-path="url(#SVGID_2_)" fill="none" stroke="#7B7881" stroke-width="0.5" stroke-miterlimit="10" x1="-5" y1="190" x2="395" y2="-10"/>
		
			<line clip-path="url(#SVGID_2_)" fill="none" stroke="#7B7881" stroke-width="0.5" stroke-miterlimit="10" x1="-15" y1="180" x2="385" y2="-20"/>
		
			<line clip-path="url(#SVGID_2_)" fill="none" stroke="#7B7881" stroke-width="0.5" stroke-miterlimit="10" x1="-25" y1="170" x2="375" y2="-30"/>
		
			<line clip-path="url(#SVGID_2_)" fill="none" stroke="#7B7881" stroke-width="0.5" stroke-miterlimit="10" x1="-35" y1="160" x2="365" y2="-40"/>
		
			<line clip-path="url(#SVGID_2_)" fill="none" stroke="#7B7881" stroke-width="0.5" stroke-miterlimit="10" x1="-45" y1="150" x2="355" y2="-50"/>
		
			<line clip-path="url(#SVGID_2_)" fill="none" stroke="#7B7881" stroke-width="0.5" stroke-miterlimit="10" x1="-55" y1="140" x2="345" y2="-60"/>
		
			<line clip-path="url(#SVGID_2_)" fill="none" stroke="#7B7881" stroke-width="0.5" stroke-miterlimit="10" x1="-65" y1="130" x2="335" y2="-70"/>
		
			<line clip-path="url(#SVGID_2_)" fill="none" stroke="#7B7881" stroke-width="0.5" stroke-miterlimit="10" x1="-75" y1="120" x2="325" y2="-80"/>
		
			<line clip-path="url(#SVGID_2_)" fill="none" stroke="#7B7881" stroke-width="0.5" stroke-miterlimit="10" x1="-85" y1="110" x2="315" y2="-90"/>
		
			<line clip-path="url(#SVGID_2_)" fill="none" stroke="#7B7881" stroke-width="0.5" stroke-miterlimit="10" x1="-95" y1="100" x2="305" y2="-100"/>
		
			<line clip-path="url(#SVGID_2_)" fill="none" stroke="#7B7881" stroke-width="0.5" stroke-miterlimit="10" x1="-105" y1="90" x2="295" y2="-110"/>
		
			<line clip-path="url(#SVGID_2_)" fill="none" stroke="#7B7881" stroke-width="0.5" stroke-miterlimit="10" x1="-115" y1="80" x2="285" y2="-120"/>
		
			<line clip-path="url(#SVGID_2_)" fill="none" stroke="#7B7881" stroke-width="0.5" stroke-miterlimit="10" x1="-125" y1="70" x2="275" y2="-130"/>
		
			<line clip-path="url(#SVGID_2_)" fill="none" stroke="#7B7881" stroke-width="0.5" stroke-miterlimit="10" x1="15" y1="210" x2="415" y2="10"/>
		
			<line clip-path="url(#SVGID_2_)" fill="none" stroke="#7B7881" stroke-width="0.5" stroke-miterlimit="10" x1="25" y1="220" x2="425" y2="20"/>
		
			<line clip-path="url(#SVGID_2_)" fill="none" stroke="#7B7881" stroke-width="0.5" stroke-miterlimit="10" x1="35" y1="230" x2="435" y2="30"/>
		
			<line clip-path="url(#SVGID_2_)" fill="none" stroke="#7B7881" stroke-width="0.5" stroke-miterlimit="10" x1="45" y1="240" x2="445" y2="40"/>
		
			<line clip-path="url(#SVGID_2_)" fill="none" stroke="#7B7881" stroke-width="0.5" stroke-miterlimit="10" x1="55" y1="250" x2="455" y2="50"/>
		
			<line clip-path="url(#SVGID_2_)" fill="none" stroke="#7B7881" stroke-width="0.5" stroke-miterlimit="10" x1="65" y1="260" x2="465" y2="60"/>
		
			<line clip-path="url(#SVGID_2_)" fill="none" stroke="#7B7881" stroke-width="0.5" stroke-miterlimit="10" x1="75" y1="270" x2="475" y2="70"/>
		
			<line clip-path="url(#SVGID_2_)" fill="none" stroke="#7B7881" stroke-width="0.5" stroke-miterlimit="10" x1="85" y1="280" x2="485" y2="80"/>
		
			<line clip-path="url(#SVGID_2_)" fill="none" stroke="#7B7881" stroke-width="0.5" stroke-miterlimit="10" x1="95" y1="290" x2="495" y2="90"/>
		
			<line clip-path="url(#SVGID_2_)" fill="none" stroke="#7B7881" stroke-width="0.5" stroke-miterlimit="10" x1="105" y1="300" x2="505" y2="100"/>
		
			<line clip-path="url(#SVGID_2_)" fill="none" stroke="#7B7881" stroke-width="0.5" stroke-miterlimit="10" x1="115" y1="310" x2="515" y2="110"/>
		
			<line clip-path="url(#SVGID_2_)" fill="none" stroke="#7B7881" stroke-width="0.5" stroke-miterlimit="10" x1="125" y1="320" x2="525" y2="120"/>
		
			<line clip-path="url(#SVGID_2_)" fill="none" stroke="#7B7881" stroke-width="0.5" stroke-miterlimit="10" x1="135" y1="330" x2="535" y2="130"/>
	</g>
</g>
</svg>
