<?xml version="1.0" encoding="utf-8"?>
<!-- Generator: Adobe Illustrator 23.0.4, SVG Export Plug-In . SVG Version: 6.00 Build 0)  -->
<svg version="1.1" xmlns="http://www.w3.org/2000/svg" xmlns:xlink="http://www.w3.org/1999/xlink" x="0px" y="0px"
	 viewBox="0 0 180 299" style="enable-background:new 0 0 180 299;" xml:space="preserve">
<style type="text/css">
	.st0{fill:#D9D9D9;}
	.st1{fill:#FFFFFF;}
	.st2{fill:none;stroke:#FFFFFF;stroke-miterlimit:10;}
</style>
<g id="background">
</g>
<g id="base">
	<polygon class="st0" points="180,299 0,299 20,279 160,279 	"/>
</g>
<g id="side_x5F_bars">
	<rect x="140" y="98.5" class="st0" width="20" height="181"/>
</g>
<g id="launch_x5F_bar">
	<polygon class="st1" points="139.5,127.2 124.5,127.2 114.5,117.2 139.5,117.2 	"/>
</g>
<g id="metal_x5F_bars_x5F_lr">
	<line class="st2" x1="140" y1="119" x2="160" y2="99"/>
	<line class="st2" x1="140" y1="139" x2="160" y2="119"/>
	<line class="st2" x1="140" y1="159" x2="160" y2="139"/>
	<line class="st2" x1="140" y1="179" x2="160" y2="159"/>
	<line class="st2" x1="140" y1="199" x2="160" y2="179"/>
	<line class="st2" x1="140" y1="219" x2="160" y2="199"/>
	<line class="st2" x1="140" y1="239" x2="160" y2="219"/>
	<line class="st2" x1="140" y1="259" x2="160" y2="239"/>
	<line class="st2" x1="140" y1="279" x2="160" y2="259"/>
</g>
<g id="metal_x5F_bar_x5F_rl">
	<line class="st2" x1="160" y1="279" x2="140" y2="259"/>
	<line class="st2" x1="160" y1="259" x2="140" y2="239"/>
	<line class="st2" x1="160" y1="239" x2="140" y2="219"/>
	<line class="st2" x1="160" y1="219" x2="140" y2="199"/>
	<line class="st2" x1="160" y1="199" x2="140" y2="179"/>
	<line class="st2" x1="160" y1="179" x2="140" y2="159"/>
	<line class="st2" x1="160" y1="159" x2="140" y2="139"/>
	<line class="st2" x1="160" y1="139" x2="140" y2="119"/>
	<line class="st2" x1="160" y1="119" x2="140" y2="99"/>
</g>
<g id="radio_x5F_tower">
	<path class="st0" d="M160,100h-20l0,0c4-13.3,6.3-26.9,7-40.8L150,0l0,0l3,59C153.6,72.9,156,86.7,160,100L160,100z"/>
</g>
</svg>
