<?xml version="1.0" encoding="utf-8"?>
<!-- Generator: Adobe Illustrator 23.0.4, SVG Export Plug-In . SVG Version: 6.00 Build 0)  -->
<svg version="1.1" xmlns="http://www.w3.org/2000/svg" xmlns:xlink="http://www.w3.org/1999/xlink" x="0px" y="0px"
	 viewBox="0 0 245 67" style="enable-background:new 0 0 245 67;" xml:space="preserve">
<style type="text/css">
	.st0{fill:url(#SVGID_1_);stroke:url(#SVGID_2_);stroke-width:3;stroke-miterlimit:10;}
	.st1{fill:#424C51;}
	.st2{fill:#B4FC03;}
	.st3{fill:#404040;}
	.st4{fill:#FC003C;}
	.st5{fill:#4E5143;}
	.st6{fill:none;stroke:#000000;stroke-miterlimit:10;}
	.st7{fill:#FFFFFF;}
	.st8{font-family:'AndaleMono';}
	.st9{font-size:20px;}
</style>
<g id="background">
</g>
<g id="truck_x5F_body">
	<linearGradient id="SVGID_1_" gradientUnits="userSpaceOnUse" x1="1.5" y1="27" x2="198.5" y2="27">
		<stop  offset="0" style="stop-color:#FF0000"/>
		<stop  offset="1" style="stop-color:#FF0000"/>
	</linearGradient>
	<linearGradient id="SVGID_2_" gradientUnits="userSpaceOnUse" x1="0" y1="27" x2="200" y2="27">
		<stop  offset="0" style="stop-color:#FF0000"/>
		<stop  offset="1" style="stop-color:#FF0000"/>
	</linearGradient>
	<rect x="1.5" y="8.5" class="st0" width="197" height="37"/>
</g>
<g id="truck_x5F_sep">
	<rect y="47" width="200" height="1"/>
</g>
<g id="tlb">
	<g>
		<g>
			<g>
				<path class="st1" d="M163.7,48H55.3c2.5,1.2,4.4,3.4,5.2,6h97.9C159.3,51.4,161.2,49.2,163.7,48z"/>
				<path class="st1" d="M193.3,48c2.5,1.2,4.4,3.4,5.2,6h21.9c0.8-2.6,2.7-4.8,5.2-6H193.3z"/>
				<path class="st1" d="M46.7,48H34.3c2.5,1.2,4.4,3.4,5.2,6h1.9C42.3,51.4,44.2,49.2,46.7,48z"/>
				<path class="st1" d="M184.7,48h-12.3c2.5,1.2,4.4,3.4,5.2,6h1.9C180.3,51.4,182.2,49.2,184.7,48z"/>
				<path class="st1" d="M234.3,48c2.5,1.2,4.4,3.4,5.2,6h5.5v-6H234.3z"/>
				<path class="st1" d="M25.7,48H0v6h20.5C21.3,51.4,23.2,49.2,25.7,48z"/>
			</g>
		</g>
	</g>
</g>
<g id="metal_x5F_back">
</g>
<g id="truck_x5F_head">
	<polygon class="st2" points="245,48 205,48 205,18 245,28 	"/>
	<polygon class="st2" points="231,34.5 205,34.5 205,7.5 226,14.7 	"/>
</g>
<g id="wheels">
	<circle class="st3" cx="51" cy="57" r="8.5"/>
	<circle cx="51" cy="57" r="3.4"/>
	<circle class="st3" cx="30" cy="57" r="8.5"/>
	<circle cx="30" cy="57" r="3.4"/>
	<circle class="st3" cx="168" cy="57" r="8.5"/>
	<path d="M171.4,56.5c0.4,2.3-1.6,4.2-3.9,3.9c-1.4-0.2-2.6-1.4-2.8-2.8c-0.4-2.3,1.6-4.2,3.9-3.9C170,53.9,171.1,55,171.4,56.5z"/>
	<circle class="st3" cx="189" cy="57" r="8.5"/>
	<circle cx="189" cy="57" r="3.4"/>
	<circle class="st3" cx="230" cy="57" r="8.5"/>
	<circle cx="230" cy="57" r="3.4"/>
</g>
<g id="exhaust_x5F_pipe">
	<path class="st4" d="M205,14h-2V2c0-1.1,0.9-2,2-2l0,0V14z"/>
	<rect x="202.5" y="13.5" class="st5" width="3" height="35"/>
</g>
<g id="grill">
	<line class="st6" x1="242" y1="31.5" x2="245" y2="31.5"/>
	<line class="st6" x1="242" y1="36.5" x2="245" y2="36.5"/>
	<line class="st6" x1="242" y1="41.5" x2="245" y2="41.5"/>
	<line class="st6" x1="242" y1="46.5" x2="245" y2="46.5"/>
</g>
<g id="Razroo">
	<text transform="matrix(1 0 0 1 33.9891 33.2625)" class="st7 st8 st9">R A Z R O O</text>
</g>
</svg>
