<?xml version="1.0" encoding="utf-8"?>
<!-- Generator: Adobe Illustrator 23.0.4, SVG Export Plug-In . SVG Version: 6.00 Build 0)  -->
<svg version="1.1" xmlns="http://www.w3.org/2000/svg" xmlns:xlink="http://www.w3.org/1999/xlink" x="0px" y="0px"
	 viewBox="0 0 483.8 148.6" style="enable-background:new 0 0 483.8 148.6;" xml:space="preserve">
<style type="text/css">
	.st0{fill:#FF5733;}
	.st1{fill:#FFFFFF;}
</style>
<g id="Icon">
	<g>
		<g>
			<path class="st0" d="M62.6,92.2v-7.6c17.1,0,31.1-13.9,31.1-31.1S79.7,22.5,62.6,22.5S31.5,36.4,31.5,53.5v30.9l25.6,0.1l0,7.6
				L23.9,92V53.5c0-21.3,17.3-38.6,38.6-38.6c21.3,0,38.6,17.3,38.6,38.6S83.9,92.2,62.6,92.2z"/>
		</g>
	</g>
	<g>
		<g>
			<path class="st0" d="M48.7,131H23.9V97.6h7.6v25.9h9.7l0-69.7c0-11.8,9.6-21.4,21.4-21.4c11.8,0,21.4,9.6,21.4,21.4
				s-9.6,21.4-21.4,21.4v-7.6c7.6,0,13.8-6.2,13.8-13.8S70.2,40,62.6,40s-13.8,6.2-13.8,13.8L48.7,131z"/>
		</g>
	</g>
	<path class="st0" d="M94.3,76.8c-9.7-9.4-25.9-9.3-27.2-9.3h-4.6v7.6h4.6l0.1,0c0.1,0,14.2-0.2,21.8,7.1c3.1,3.1,4.7,7,4.7,12v29.3
		H82.7l0-24.7c0-3.8-1.3-7-3.8-9.5c-4.9-4.8-12.8-4.9-13.9-4.8h-2.4V92H65l0.1,0c1.5,0,6.1,0.4,8.5,2.7c1,1,1.5,2.3,1.5,4l0,28.5
		v3.8h26v-3.8v-3.8V94.2C101.2,87.2,98.9,81.3,94.3,76.8z"/>
</g>
<g id="Text">
	<g>
		<path class="st1" d="M198.1,61.2c0,2.8-0.4,5.5-1.2,8.1c-0.8,2.6-1.9,4.9-3.2,7.1c-1.4,2.2-3.1,4.1-5,5.9c-2,1.8-4.2,3.2-6.6,4.3
			l16,24.9h-16l-14.2-22.1h-9.2l5.5-13.4h5.8c4,0,7.5-1.5,10.4-4.4c1.3-1.4,2.4-3,3.1-4.8c0.7-1.8,1.1-3.7,1.1-5.6
			c0-1.9-0.4-3.8-1.1-5.6c-0.7-1.8-1.8-3.4-3.1-4.7c-2.9-2.9-6.4-4.4-10.4-4.4h-15.9v7.4v22.1v13.4v22.1h-13.4V89.4V53.9V33H170
			c3.9,0,7.5,0.7,10.9,2.2c3.4,1.5,6.4,3.5,8.9,6c2.5,2.5,4.6,5.5,6,8.9C197.3,53.6,198.1,57.3,198.1,61.2z"/>
		<path class="st1" d="M259.4,55.3v56.1h-13.4v-28c0-4.5-1.6-8.3-4.7-11.4c-3.1-3.1-6.9-4.7-11.4-4.7c-2.2,0-4.2,0.4-6.2,1.2
			c-2,0.8-3.7,2-5.2,3.5c-3.1,3.1-4.7,6.9-4.7,11.4c0,4.4,1.6,8.2,4.7,11.3c1.5,1.6,3.2,2.7,5.2,3.5c2,0.8,4,1.2,6.2,1.2
			c2.2,0,4.3-0.4,6-1.1l4.8,12c-3.4,1.7-7.4,2.6-12,2.6c-4.1,0-7.9-0.8-11.4-2.3c-3.5-1.5-6.5-3.6-9-6.3c-2.5-2.7-4.5-5.8-5.9-9.4
			c-1.4-3.6-2.1-7.4-2.1-11.4c0-4.1,0.7-8,2.1-11.5c1.4-3.6,3.4-6.7,5.9-9.4c2.5-2.7,5.5-4.8,9-6.3c3.5-1.5,7.3-2.3,11.4-2.3
			c3.7,0,6.9,0.6,9.7,1.7c2.8,1.1,5.3,2.5,7.5,4.3v-4.5H259.4z"/>
		<path class="st1" d="M312.7,64.6l-27,33.4h25.6v13.4h-36.5H265v-9l27-33.4h-24.6V55.4h35.8v0.1h9.5V64.6z"/>
		<path class="st1" d="M338.8,55.4c2.6-1.1,5.7-1.7,9-1.7v13.4c-4.5,0-8.3,1.6-11.4,4.7c-3.1,3.3-4.7,7.1-4.7,11.4v28.1h-13.4V83.3
			v-28h13.4v4.4C333.8,58,336.2,56.6,338.8,55.4z"/>
		<path class="st1" d="M377.5,53.9c4.1,0,8,0.8,11.5,2.3c3.6,1.5,6.7,3.6,9.4,6.3c2.7,2.7,4.8,5.8,6.3,9.4c1.5,3.6,2.3,7.4,2.3,11.5
			c0,4-0.8,7.8-2.3,11.4c-1.5,3.6-3.6,6.7-6.3,9.4c-2.7,2.7-5.8,4.8-9.4,6.3c-3.6,1.5-7.4,2.3-11.5,2.3c-4.1,0-8-0.8-11.5-2.3
			c-3.6-1.5-6.7-3.6-9.4-6.3c-2.7-2.7-4.8-5.8-6.3-9.4c-1.5-3.6-2.3-7.4-2.3-11.4c0-4.1,0.8-8,2.3-11.5c1.5-3.6,3.6-6.7,6.3-9.4
			s5.8-4.8,9.4-6.3C369.6,54.6,373.4,53.9,377.5,53.9z M377.5,67.3c-4.5,0-8.3,1.6-11.4,4.7c-3.1,3.1-4.7,6.9-4.7,11.4
			c0,4.4,1.6,8.2,4.7,11.3c1.5,1.6,3.2,2.7,5.2,3.5c2,0.8,4,1.2,6.2,1.2c2.2,0,4.2-0.4,6.2-1.2c1.9-0.8,3.7-2,5.3-3.5
			c3.1-3.1,4.7-6.9,4.7-11.3c0-4.5-1.6-8.3-4.7-11.4C385.6,68.9,381.8,67.3,377.5,67.3z"/>
		<path class="st1" d="M441.1,53.9c4.1,0,8,0.8,11.5,2.3c3.6,1.5,6.7,3.6,9.4,6.3c2.7,2.7,4.8,5.8,6.3,9.4c1.5,3.6,2.3,7.4,2.3,11.5
			c0,4-0.8,7.8-2.3,11.4c-1.5,3.6-3.6,6.7-6.3,9.4c-2.7,2.7-5.8,4.8-9.4,6.3c-3.6,1.5-7.4,2.3-11.5,2.3c-4.1,0-8-0.8-11.5-2.3
			c-3.6-1.5-6.7-3.6-9.4-6.3c-2.7-2.7-4.8-5.8-6.3-9.4c-1.5-3.6-2.3-7.4-2.3-11.4c0-4.1,0.8-8,2.3-11.5c1.5-3.6,3.6-6.7,6.3-9.4
			s5.8-4.8,9.4-6.3C433.2,54.6,437,53.9,441.1,53.9z M441.1,67.3c-4.5,0-8.3,1.6-11.4,4.7c-3.1,3.1-4.7,6.9-4.7,11.4
			c0,4.4,1.6,8.2,4.7,11.3c1.5,1.6,3.2,2.7,5.2,3.5c2,0.8,4,1.2,6.2,1.2c2.2,0,4.2-0.4,6.2-1.2c1.9-0.8,3.7-2,5.3-3.5
			c3.1-3.1,4.7-6.9,4.7-11.3c0-4.5-1.6-8.3-4.7-11.4C449.3,68.9,445.5,67.3,441.1,67.3z"/>
	</g>
</g>
</svg>
